<svg width="657" height="371" viewBox="0 0 657 371" fill="none" xmlns="http://www.w3.org/2000/svg">
<g clip-path="url(#clip0)">
<path opacity="0.36" d="M-39.4 -117.9V-0.399994V96.7H23.4V226.7H-12.1V371H23.4H28.4H225.1H230.1H426.9H431.9H628.6H633.6H676.4V226.7H633.6V28H680.1C680.8 28 681.5 28 682.2 28C710 27.1 732.3 4.80001 734 -22.9L739.8 -117.9H-39.4ZM28.4 226.7V96.7H61.6C81.1 96.7 99.9 88.9 113.7 75.1L139.2 49.6C153 35.8 171.8 28 191.3 28H225.1V226.7H28.4ZM230.1 226.7V28H426.9V226.7H230.1ZM628.6 226.7H431.9V28H628.6V226.7V226.7Z" fill="#E2E2E2"/>
<path d="M399.095 167.8L389.295 174.6L394.495 184.1L407.995 176.2C410.595 174.7 412.195 171.9 412.195 168.8L399.095 167.8Z" fill="#744C39"/>
<path d="M269.495 296.1H357.695L348.895 207.3C348.095 201.1 342.795 196.5 336.495 196.5H282.095C281.995 196.5 281.895 196.5 281.695 196.5C274.795 196.8 269.395 202.6 269.595 209.5L269.495 296.1Z" fill="#B18977"/>
<path d="M363.395 212.8C366.295 213.9 368.795 213.7 371.295 212.2L372.695 211.3C380.095 205.9 382.695 204.1 385.195 200.8L383.995 195.7L369.395 186.4L361.495 197C358.995 200.3 357.995 198 356.895 201.9L358.195 206.8C358.995 209.5 360.795 211.9 363.395 212.8Z" fill="#1F418E"/>
<path d="M361.195 211.4L326.695 182.6L343.395 162L366.295 191.5C370.395 197.1 372.695 203.7 372.995 210.7L371.995 210.5L361.195 211.4Z" fill="#1F418E"/>
<path d="M368.995 185.8C373.695 181.8 380.895 182.4 384.995 187.3C388.995 192 388.395 199.2 383.595 203.2L380.995 205.4C376.195 209.4 368.995 208.8 364.995 204C360.995 199.2 361.595 192 366.395 188L368.995 185.8Z" fill="#2753B4"/>
<path d="M385.895 190.1C387.995 195.2 385.595 201 380.595 203.1C375.595 205.2 370.395 203.4 368.295 198.3C365.695 192.1 369.195 187.5 374.395 185.9C379.395 184.4 383.695 185.1 385.895 190.1Z" fill="#744C39"/>
<path d="M394.495 184.1L384.295 200.2C378.495 205.8 370.495 200.6 370.795 197.3L368.695 195.9L371.495 187.2L390.745 173.574L394.495 184.1Z" fill="#744C39"/>
<path d="M406.595 155.3L414.695 160.3L415.495 159.3C415.995 158.6 415.795 157.7 415.095 157.3L408.995 153.9C408.395 153.5 407.695 153.7 407.295 154.2L406.595 155.3Z" fill="#333333"/>
<path d="M394.595 170.8C394.195 171.3 394.295 172 394.695 172.5L399.495 177.5C400.095 178.1 400.995 178 401.495 177.4L402.695 175.9L395.595 169.5L394.595 170.8Z" fill="#333333"/>
<path d="M395.595 169.5L402.695 175.9L414.695 160.3L406.595 155.3L395.595 169.5Z" fill="black"/>
<path d="M323.395 135.3L321.095 128.2C320.595 126.5 320.395 124.7 320.595 123C321.295 116 327.595 111 334.495 111.7L342.295 112.5C346.695 113 350.395 116.3 351.195 120.7C351.195 120.9 351.195 121.2 351.295 121.4C352.095 126 352.595 126.9 350.895 129.2C351.795 131.3 353.195 133.9 353.995 135.5C353.995 135.6 354.095 135.8 354.095 135.9C354.195 136.6 353.695 137.3 352.995 137.4C352.495 137.5 351.895 137.6 351.295 137.6C351.395 138.9 350.595 139.9 350.595 141.2C350.595 142.2 350.795 143.5 350.695 144.6H351.195C350.995 146.7 349.095 148.2 346.995 148L322.995 145.5C324.295 142.2 324.395 138.5 323.395 135.3Z" fill="#744C39"/>
<path d="M349.095 129.6L349.195 129.7L346.295 129.6C347.095 129 348.195 129 349.095 129.6Z" fill="black"/>
<path d="M345.695 127.3C345.895 127.1 346.095 127 346.295 126.9C346.995 126.5 350.495 126.4 349.895 127.9C349.795 128.1 349.695 128.2 349.495 128.2L345.595 127.8C345.395 127.8 345.295 127.5 345.395 127.4C345.395 127.3 345.495 127.2 345.695 127.3Z" fill="black"/>
<path d="M348.495 130C348.495 130.2 348.395 130.4 348.295 130.5L347.395 130.4C347.395 130.4 347.295 130.3 347.295 130.2V130.1C347.295 129.8 347.595 129.5 347.895 129.5C347.895 129.5 347.995 129.5 348.095 129.5C348.295 129.6 348.395 129.7 348.495 129.9C348.495 130 348.595 130 348.495 130Z" fill="black"/>
<path d="M329.295 112.1C322.595 114.2 318.995 121.4 321.095 128L323.395 135.1C323.695 136.1 323.895 137.1 323.995 138.2C325.095 134.2 328.895 132 331.895 129.6L337.795 130.2L337.895 129.4C338.095 127.8 338.895 126.5 340.095 125.6L341.595 124.5C341.595 124.5 341.595 119.8 338.295 116.5L350.295 117.8C348.695 114.8 345.695 112.8 342.295 112.5L334.395 111.7C332.695 111.5 330.895 111.7 329.295 112.1Z" fill="black"/>
<path d="M345.595 140.5L341.295 153.5L323.595 145.1L345.595 140.5Z" fill="#744C39"/>
<path d="M335.495 136.9L334.995 137.7C334.595 138.3 333.995 138.6 333.195 138.6C332.495 138.6 331.695 138.1 331.395 137.3L329.295 132.5H334.795L335.495 136.9Z" fill="#3D281E"/>
<path d="M335.995 130L334.295 127.5C333.795 126.7 332.895 126.4 331.995 126.4C330.895 126.4 329.995 126.9 329.495 127.8C328.595 129.2 328.595 130.9 329.195 132.4L329.795 133.9C330.395 135.2 331.995 136.3 333.795 136.5L335.595 136.8L335.995 130Z" fill="#744C39"/>
<path d="M334.295 130.5L332.595 128.4C332.195 128 331.195 128 330.895 128.6L330.295 129.7C330.095 130.1 330.095 130.5 330.295 131L331.195 133C331.295 133.3 331.595 133.6 332.095 133.8L333.595 134.4C333.895 134.6 334.095 134.3 334.095 134.1L333.295 132.6C333.195 132.3 333.295 132 333.795 131.8C334.395 131.8 334.495 131.1 334.295 130.5Z" fill="#3D281E"/>
<path d="M345.995 139.2L343.195 147.7H343.395C345.195 147.8 347.295 148.4 349.095 147.9C350.195 147.6 350.895 146.8 351.095 145.7C351.195 145.3 351.195 145 351.095 144.6C350.995 144.2 350.795 143.7 350.795 143.3C350.795 142.9 350.795 141.8 350.495 141.2C349.995 140.2 352.095 139.6 352.095 139.6C351.195 139.1 351.295 138.2 351.295 137.6L348.795 137.4C347.695 137.3 346.595 138 345.995 139.2Z" fill="#744C39"/>
<path d="M302.895 180.7C303.395 173.4 301.595 166.7 307.495 162.4L313.195 158.2C317.895 154.8 320.916 150.103 323.216 144.903L341.337 153.373C340.137 157.573 339.895 158.5 346.595 168.5C347.595 169.9 348.195 170.9 348.495 172.4C349.695 178.1 354.095 191.7 353.895 202.2C353.695 219.4 354.995 231.3 354.495 247.1L351.495 233L346.195 269.4L306.895 262.7C306.895 240.1 301.095 206.4 302.895 180.7Z" fill="#2753B4"/>
<path d="M302.495 194.9L303.795 217.4L307.695 217.2L316.395 180.1L302.495 194.9Z" fill="#1F418E"/>
<path d="M352.495 189L319.561 151.572L315.195 156.6C322.495 163.9 333.095 179 353.895 199.8C353.795 196.2 353.295 192.6 352.495 189Z" fill="#1F418E"/>
<path d="M323.215 144.903L341.336 153.373C340.436 157.173 340.894 156.4 346.394 168.5C347.294 170.3 348.794 173 349.094 174.5C350.194 180.5 351.194 183.2 352.494 189L319.56 151.572L323.215 144.903Z" fill="white"/>
<path d="M355.395 231.6L314.595 232.1C303.595 232.4 292.795 229.4 283.495 223.7L278.795 220.8L296.295 215.5L355.195 219.9L355.395 231.6Z" fill="#744C39"/>
<path d="M276.795 217.6C284.895 199 297.095 169.4 306.695 163.1L322.895 172.4L293.495 223.5L285.995 223.2C279.995 221.4 274.195 223.4 276.795 217.6Z" fill="#2753B4"/>
<path d="M275.695 222.7C275.895 227.7 279.895 231.8 284.995 232.1C294.895 232.7 306.395 232.3 314.695 232.1L325.995 231.9L327.195 215.9L294.295 210.2L286.095 212.3C285.795 212.3 285.395 212.3 284.995 212.3C279.595 212.6 275.395 217.2 275.695 222.7Z" fill="#2753B4"/>
<path d="M328.495 235.6L315.795 235.1H315.695C314.695 235 313.895 234.1 313.995 233L315.595 214.9V214.8C315.695 213.8 316.595 213 317.695 213.2L330.295 214.9C331.295 215.1 331.995 216 331.895 217L330.495 233.8C330.395 234.9 329.595 235.6 328.495 235.6Z" fill="#1F418E"/>
<path d="M346.795 182.523L352.495 189C351.295 182.8 351.395 181.9 349.995 176.3C349.195 173.3 348.195 170.1 347.295 168.5C343.295 161.4 341.895 158.9 341.095 156.8L339.695 160.2L343.095 162L342.695 164.2L346.795 182.523Z" fill="#2B6B46"/>
<path d="M343.395 224.3L349.395 228.3C351.195 229.6 353.395 230.3 355.595 230.3L361.095 230.4L363.795 221.5C365.995 222.6 370.495 224.5 373.995 225.9C374.795 226.2 375.695 225.9 376.095 225.1L376.195 225C376.395 224.7 376.295 224.3 375.995 224.1L367.495 218.8C365.995 217.9 364.195 217.3 362.395 217.3L358.295 218.1L346.895 220.2L343.395 224.3Z" fill="#744C39"/>
<path d="M362.095 227.7L378.595 228.1C378.395 227 377.495 226 376.395 225.5C371.395 223.5 365.595 220.6 362.795 219.7L362.095 227.7Z" fill="#744C39"/>
<path d="M364.495 227.2C367.995 227.2 371.595 227.2 373.095 227.2C373.595 227.2 373.995 226.9 374.195 226.4C374.295 226.3 374.295 226.3 374.295 226.2C374.395 225.5 373.995 224.9 373.395 224.8L363.195 222.6L364.495 227.2Z" fill="#744C39"/>
<path d="M388.295 180.3C390.595 180 393.195 181.6 393.195 181.6L390.195 179.3" stroke="#3D281E" stroke-width="0.3355" stroke-linecap="round" stroke-linejoin="round"/>
<path d="M393.395 166.6L393.895 166.1C395.295 166.1 396.195 168 396.795 169.5C397.295 171.1 397.495 172.8 396.895 174.4C396.395 175.8 395.495 176.8 394.095 176.8C391.795 176.8 390.695 175.6 389.295 174.6L389.795 172.4C390.495 169.6 393.395 166.6 393.395 166.6Z" fill="#744C39"/>
<path d="M399.395 164.4L395.095 170.2L393.795 168.9C393.095 168.2 393.095 167 393.795 166.2L398.195 161.6C398.495 161.4 398.895 161.4 399.195 161.6C399.895 162.4 399.995 163.5 399.395 164.4Z" fill="#744C39"/>
<path d="M405.995 172.9L405.795 166.5C405.795 165.6 406.395 164.9 407.295 164.7C407.695 164.6 408.095 164.9 408.095 165.2L409.295 172.3L405.995 172.9Z" fill="#744C39"/>
<path d="M408.895 168.7L409.795 162.4C409.895 161.6 410.595 160.9 411.495 160.9C411.895 160.9 412.195 161.3 412.195 161.6V168.8L408.895 168.7Z" fill="#744C39"/>
<path d="M403.695 177.1L402.295 170.8C402.095 170 402.595 169.1 403.395 168.8C403.795 168.7 404.195 168.9 404.295 169.2L406.795 176L403.695 177.1Z" fill="#744C39"/>
<path d="M347.095 143V141.2C347.095 140.3 347.795 139.6 348.695 139.6L351.695 139.5L350.395 141.2L350.895 143V143.9L348.695 144.3C347.895 144.4 347.195 143.8 347.095 143Z" fill="#744C39"/>
<path d="M349.695 142.3C349.395 142.1 349.095 141.8 348.895 141.5C348.695 141.2 348.495 140.8 348.295 140.5C349.295 140.5 350.195 139.8 351.095 139.5C351.295 139.5 351.495 139.4 351.695 139.4C351.695 139.4 352.095 139.4 352.095 139.5C352.095 139.7 352.095 140 351.995 140.2C351.795 140.8 351.395 141.1 350.995 141.1H350.595H350.695C350.795 141.1 350.995 141.4 351.095 141.5C351.195 141.7 351.295 141.8 351.395 142C351.495 142.3 351.595 142.8 351.295 143C351.095 143.1 350.995 143 350.795 143C350.495 142.9 350.095 142.6 349.695 142.3Z" fill="#3D281E"/>
<path d="M342.095 151.3L335.495 144.8L343.295 147.6L342.095 151.3Z" fill="#3D281E"/>
<path d="M181.9 290.2C185.8 285.4 186.4 278.8 183.6 273.3C177.3 261 179 246.2 187.9 235.6C191.4 231.5 192.5 225.9 190.8 220.8C186.6 208.1 193.4 194.3 206.2 190.1C218.9 185.9 232.7 192.7 236.9 205.5C238.6 210.5 238.6 215.8 236.9 220.7C235.2 225.9 236.4 231.6 240 235.8C248.8 246.3 250.4 261.1 244.1 273.2C241.3 278.7 242 285.3 245.8 290.1C259.9 307.7 257.1 333.5 239.4 347.6C238.3 348.5 237.2 349.3 236 350.1L191.2 350C172.3 337.6 167 312.1 179.5 293.2C180.3 292.3 181.1 291.2 181.9 290.2Z" fill="#3AA76D"/>
<path d="M186.1 349H241.6L235 371H192.7L186.1 349Z" fill="#333333"/>
<path d="M657 227.1H214.6V371H657V227.1Z" fill="#E2E2E2"/>
<path d="M838.9 317.1V272.6H591.8C582.9 272.6 574.2 276.2 567.9 282.5L556.2 294.2C549.9 300.5 541.2 304.1 532.3 304.1H214.6V371H838.9V317.1Z" fill="#EEEEEE"/>
<path d="M447.9 225H367.1V226.7H447.9V225Z" fill="#E2E2E2"/>
<path d="M401.2 193.2H452.987C454.96 193.2 456.396 195.073 455.884 196.978L447.9 226.7H389.9L398.303 195.422C398.655 194.111 399.843 193.2 401.2 193.2Z" fill="#E2E2E2"/>
<path d="M556.891 214.656H465.298C462.734 214.656 460.676 212.598 460.676 210.034V158.013C460.676 155.449 462.734 153.391 465.298 153.391H556.891C559.455 153.391 561.513 155.449 561.513 158.013V210.034C561.513 212.598 559.455 214.656 556.891 214.656Z" fill="#E2E2E2"/>
<path d="M500.586 225.249C499.911 225.586 499.338 226.092 498.899 226.7H530.442C530.003 226.093 529.43 225.587 528.755 225.249C528.08 224.912 527.338 224.709 526.596 224.709C524.707 224.709 522.885 223.967 521.569 222.617C520.253 221.268 519.477 219.48 519.477 217.59V214.655H509.896V217.59C509.896 219.479 509.154 221.301 507.804 222.617C506.488 223.933 504.633 224.709 502.777 224.709C502.003 224.71 501.261 224.878 500.586 225.249Z" fill="#E2E2E2"/>
<path d="M381.016 219.9V211.4H400.216V219.9C400.216 223.7 397.216 226.7 393.416 226.7H387.916C384.116 226.7 381.116 223.6 381.016 219.9Z" fill="#84C298"/>
<path d="M378.216 220.6L377.216 217C376.816 215.7 377.616 214.4 378.916 214C380.216 213.6 381.516 214.4 381.916 215.7L383.816 222.3L382.116 222.8C380.416 223.3 378.716 222.3 378.216 220.6Z" stroke="#368759" stroke-width="1.2385" stroke-miterlimit="10"/>
<path d="M381.016 211.4V219.9C381.016 222.8 382.916 225.265 385.516 226.265V211.4H381.016Z" fill="#3AA76D"/>
<path d="M658.6 226.7H209.6V233.1H658.6V226.7Z" fill="#CBCBCB"/>
<path d="M540.595 175.5C540.295 175 539.695 174.6 539.095 174.5L533.795 173.8C533.395 173.7 533.095 173.4 532.995 173C532.895 172.4 533.295 172 533.795 171.9C533.895 171.9 533.895 171.9 533.995 171.9C537.495 172.1 542.995 172 544.895 173.7C546.995 175.3 548.195 178.5 551.895 183C554.095 184.6 558.795 185.7 563.595 187.4C567.895 189 559.895 197.6 559.895 197.6C559.895 197.6 549.395 190.6 546.995 188.5C545.495 187.2 543.195 187.6 541.195 185.9C539.295 184.3 536.995 179.9 535.795 179.1C534.095 178 534.495 177.1 535.095 176.9C535.695 176.6 538.395 178.1 539.595 179.3L539.695 179.4C540.895 180.5 542.695 179 541.895 177.6L540.595 175.5Z" fill="#F7BFA5"/>
<path d="M506.704 194.807C507.204 192.907 511.495 185.4 513.095 182.5C513.395 182 513.995 181.7 514.595 182C515.195 182.2 515.495 182.9 515.295 183.5L510.995 195.6L506.704 194.807Z" fill="#F19164"/>
<path d="M504.595 193.5C505.095 191.6 509.795 183 511.395 180.1C511.695 179.6 512.295 179.3 512.895 179.6C513.495 179.8 513.795 180.5 513.595 181.1L509.295 193.2L504.595 193.5Z" fill="#F19164"/>
<path d="M512.395 188.5L503.395 184.7L509.195 194.6L513.595 190.2L512.395 188.5Z" fill="#F19164"/>
<path d="M503.195 168.5C502.795 167.9 502.095 167.8 501.495 168.1L495.395 171.4C494.695 171.8 494.495 172.8 494.995 173.4L495.795 174.4L503.995 169.5L503.195 168.5Z" fill="#333333"/>
<path d="M514.895 183.9L507.695 190.3L508.795 191.8C509.295 192.4 510.195 192.5 510.795 191.9L515.695 187C516.095 186.6 516.195 185.8 515.795 185.3L514.895 183.9Z" fill="#333333"/>
<path d="M503.995 169.5L495.795 174.4L507.695 190.3L514.895 183.9L503.995 169.5Z" fill="black"/>
<path d="M509.595 191.5L505.72 195.29C504.72 194.69 503.92 193.79 503.42 192.69L496.92 179.39C496.82 178.99 496.92 178.49 497.32 178.29C497.42 178.19 497.42 178.19 497.52 178.19C498.22 177.99 498.92 178.39 499.32 178.89C503.12 184.19 506.52 188.59 508.02 190.49C508.42 190.89 509.075 191.325 509.595 191.5Z" fill="#F7BFA5"/>
<path d="M513.495 201.7C512.695 200.8 508.095 197.2 505.695 195.3L505.595 195.2L509.595 191.5C509.795 191.6 510.095 191.5 510.295 191.4C510.995 191 511.295 190.1 510.995 189.4C510.935 189.254 510.895 189.2 510.795 189.1L506.895 184.3C506.495 183.8 506.595 183.2 506.995 182.8C507.395 182.4 508.095 182.3 508.495 182.7C511.095 184.9 513.595 187.4 515.695 190.1C518.295 193.5 518.695 193.8 520.595 195.3C522.495 196.8 520.195 204.3 513.495 201.7Z" fill="#F7BFA5"/>
<path d="M567.095 152.4C567.095 153.2 566.095 154.1 565.995 154.7C565.795 155.4 567.195 155.8 567.195 155.8C566.495 156.3 566.095 157.4 567.695 157.7C567.995 157.8 568.295 158.1 568.495 158.4L569.295 159.7V152.4H567.095Z" fill="#F7BFA5"/>
<path d="M590.695 151.6L592.295 149.1C597.095 141.2 591.395 131.1 582.195 131.1H577.995C572.395 131.1 567.895 135.6 567.895 141.2C567.895 141.2 567.895 141.3 567.895 141.4L567.995 144.6C567.995 146.3 566.595 147.6 565.195 150C564.795 150.7 565.095 151.5 565.695 151.9C565.895 152 566.095 152.1 566.295 152.1C566.495 152.1 566.695 152.1 566.895 152.1C566.995 153.6 567.495 155.2 567.895 156.7C568.095 157.6 568.195 158.5 567.995 159.4C567.495 161.5 568.195 162.8 572.395 162.8H590.195C589.895 161.9 589.595 161.1 589.395 160.2C588.695 157.2 589.195 154 590.695 151.6Z" fill="#F7BFA5"/>
<path d="M566.33 154.006C566.184 154.212 566.081 154.409 565.981 154.709C565.881 155.409 567.096 155.809 567.096 155.809H568.881C568.081 154.51 567.73 153.906 566.33 154.006Z" fill="#B83E2B"/>
<path d="M567.096 155.81C566.396 156.31 566.243 156.747 566.843 157.347C567.843 156.947 568.296 156.21 568.896 155.81H567.096Z" fill="#F19164"/>
<path d="M572.495 162.8H578.195L578.295 159.4C578.295 159.4 572.395 162.8 572.495 162.8Z" fill="#F19164"/>
<path d="M604.295 172.8C591.295 171.3 592.095 166 591.095 159.7H582.395L576.995 158.9C578.295 165.7 577.495 169.3 568.395 172C567.695 172.2 567.095 172.5 566.395 172.7C565.095 173.2 564.195 173.5 561.495 174.6C570.095 179.4 575.895 183 585.395 183C593.595 183 596.595 182.3 602.695 179.1L604.295 172.8Z" fill="#F7BFA5"/>
<path d="M603.695 172.6L604.295 172.7L602.695 179C596.595 182.3 593.595 182.9 585.395 182.9C575.895 182.9 569.395 179.5 560.895 174.7C562.095 174 563.295 173.3 564.695 172.9C566.095 172.5 567.495 172.1 568.895 171.7C569.695 171.5 570.395 171.2 571.195 170.9C571.495 170.8 571.895 170.7 572.195 170.5C572.395 170.4 572.895 170.1 573.095 170.1H596.995C599.195 171.4 599.495 172.2 603.695 172.6Z" fill="#2B6B46"/>
<path d="M597.095 170.1H573.195C577.895 167.6 578.195 164.2 577.095 158.8L582.495 159.6H591.095C591.795 163.9 592.595 167.7 597.095 170.1Z" fill="#F7BFA5"/>
<path d="M555.095 201.4L567.395 182.4L564.595 225L555.395 212C553.195 208.8 553.095 204.6 555.095 201.4Z" fill="#2B6B46"/>
<path d="M560.795 174.9C563.695 173.4 567.395 173 570.495 174.3L584.395 178.4C587.195 179.6 590.495 179.7 593.295 178.5C597.995 175.4 603.295 168.9 607.995 175.9C611.895 181.8 611.495 189.3 611.995 196C612.495 201.6 613.395 207.2 613.695 212.9L614.495 228.1L558.495 247.4L560.795 174.9Z" fill="#2B6B46"/>
<path d="M537.695 225.8C534.495 224 533.295 219.8 535.195 216.6L557.195 178.3C557.295 178 557.495 177.8 557.695 177.5C560.595 173.5 566.295 172.5 570.395 175.5C574.395 178.4 575.395 184.1 572.395 188.2L546.495 223.9C544.495 226.6 540.695 227.5 537.695 225.8Z" fill="#2B6B46"/>
<path d="M566.095 140.2C566.095 140.6 566.195 141 566.195 141.4L566.395 144.2H571.495C572.295 142.8 573.295 141.6 574.495 140.6L573.695 144.2H577.895L580.995 141.1C580.995 146.6 580.295 149.4 580.295 155.6C580.295 160.4 582.995 164.2 584.195 168.9C584.795 171.2 586.895 172.8 589.195 172.8H596.295C600.095 172.8 603.495 170.1 604.295 166.4C604.795 163.8 603.895 161.9 602.795 159.6C600.895 155.8 601.295 154.1 601.295 151.1C601.295 148.6 601.595 145.6 600.195 143.3C599.595 142.2 599.195 140.9 598.995 139.7C598.695 137.7 597.895 135.9 596.495 134.4C593.295 130.7 588.795 128.7 583.995 128.7H577.395C571.095 128.7 565.995 133.8 566.095 140.2Z" fill="#66321D"/>
<path d="M540.095 274.9L520.395 270.6C523.195 305 528.395 346.8 528.395 346.8H539.595C539.395 324.3 542.295 302.2 540.095 274.9Z" fill="black"/>
<path d="M531.695 265L508.195 270.6C526.895 299.6 556.395 334.9 556.395 334.9L565.295 328.7C554.495 308.9 546.695 288.1 531.695 265Z" fill="black"/>
<path d="M572.395 340.5C573.495 344.5 576.295 350.3 576.295 350.3L573.095 352L570.695 348.7L568.495 354.5L555.795 361.3C554.295 358.5 554.395 357.3 556.295 352.8C558.195 348.2 557.395 345.2 555.995 342.5L550.495 332.3L563.495 325.3C563.995 325.1 564.695 325.3 564.995 325.8C569.395 333.9 571.395 336.7 572.395 340.5Z" fill="#99644C"/>
<path d="M560.495 326.9L563.095 325.5L568.595 335.8C568.995 336.5 568.695 337.4 567.995 337.8C567.295 338.2 566.395 337.9 565.995 337.2L560.495 326.9Z" fill="#744C39"/>
<path d="M522.795 299.1L504.195 274.6C502.195 271.9 501.095 268.7 501.095 265.4C501.095 258 506.395 251.7 513.695 250.5L598.795 239.2L605.295 275.7C607.395 286.4 600.395 296.8 589.695 298.8C588.395 299 587.095 299.1 585.895 299.1H522.795V299.1Z" fill="#AFAFAF"/>
<path d="M540.295 360.6C539.395 364.5 539.095 371 539.095 371H535.495L534.795 366.9L530.095 371H515.695C515.695 367.9 516.395 366.9 520.195 363.8C523.995 360.8 524.795 357.7 524.795 354.6V343H539.595C540.195 343 540.695 343.5 540.695 344.1C540.695 353.3 541.195 356.7 540.295 360.6Z" fill="#99644C"/>
<path d="M536.095 342.9H539.095V354.6C539.095 355.4 538.395 356.1 537.595 356.1C536.795 356.1 536.095 355.4 536.095 354.6V342.9Z" fill="#744C39"/>
<path d="M641.595 208.9C641.795 202 636.395 196.1 629.395 195.9C629.295 195.9 629.195 195.9 628.995 195.9H574.395C568.095 195.9 562.795 200.6 561.895 206.8L553.095 295.9H639.495L641.595 208.9Z" fill="#B18977"/>
<path d="M581.795 361.3V299.1" stroke="#CBCBCB" stroke-width="2.2092" stroke-miterlimit="10"/>
<path d="M586.795 299.4H576.895V309.3H586.795V299.4Z" fill="#AFAFAF"/>
<path d="M586.795 357H576.895V361.9H586.795V357Z" fill="#CBCBCB"/>
<path d="M556.295 361.3H607.395" stroke="#CBCBCB" stroke-width="2.2092" stroke-miterlimit="10"/>
<path d="M631.095 303.7H532.495C527.895 303.7 524.095 300 524.095 295.3C524.095 290.7 527.795 286.9 532.495 286.9H631.095C635.695 286.9 639.495 290.6 639.495 295.3C639.495 299.9 635.795 303.7 631.095 303.7Z" fill="#B18977"/>
<path d="M514.795 196.4L541.195 220.2" stroke="#2B6B46" stroke-width="13.2549" stroke-miterlimit="10"/>
<path d="M572.595 146.2L572.095 146.3C571.595 146.1 571.095 146.2 570.795 146.3L570.195 146.5L570.295 146L569.095 145.6H569.195C569.595 145.6 569.995 145.4 570.295 145.2C570.595 145 571.095 145 571.295 145.2L572.595 146.2Z" fill="#744C39"/>
<path d="M556.295 371C558.559 371 560.395 369.164 560.395 366.9C560.395 364.636 558.559 362.8 556.295 362.8C554.031 362.8 552.195 364.636 552.195 366.9C552.195 369.164 554.031 371 556.295 371Z" fill="#333333"/>
<path d="M581.795 371C584.059 371 585.895 369.164 585.895 366.9C585.895 364.636 584.059 362.8 581.795 362.8C579.531 362.8 577.695 364.636 577.695 366.9C577.695 369.164 579.531 371 581.795 371Z" fill="#333333"/>
<path d="M607.395 371C609.659 371 611.495 369.164 611.495 366.9C611.495 364.636 609.659 362.8 607.395 362.8C605.131 362.8 603.295 364.636 603.295 366.9C603.295 369.164 605.131 371 607.395 371Z" fill="#333333"/>
<path d="M581.495 128.9H588.195C593.795 128.9 598.895 132 601.595 136.9L608.295 149.2C609.095 150.7 609.195 152.5 608.595 154.2L606.795 158.8L607.095 159.1C609.395 161.4 609.395 165.2 607.095 167.6C607.095 171.4 603.795 174.3 600.095 173.9L589.095 172.9C588.595 172.8 588.095 172.7 587.695 172.4C582.295 169 589.295 161.1 589.295 154.5V146.5L579.895 146.9C577.395 146.9 577.895 144 576.795 140.7C575.495 136.7 575.195 135.6 575.195 130L581.495 128.9Z" fill="#66321D"/>
<path d="M583.295 143.9C584.795 144.3 585.695 145.8 585.295 147.3L584.595 149.9C584.295 151.4 582.895 152.5 581.295 152.5H579.495L579.895 146.4C579.895 144.9 581.195 143.8 582.595 143.8C582.895 143.8 583.095 143.8 583.295 143.9Z" fill="#F7BFA5"/>
<path d="M113 218L104.7 275.9L61.3 303.9L57.7 277.2C56.2 265.7 58.1 254.6 63.1 244.4L76.5 217.5L113 218Z" fill="#744C3A"/>
<path d="M64.4 176.1L175.8 186L138.4 210.9L70.5 194.8C62.8 191.9 58.7 185.2 59.5 179C60.2 176.9 62 175.7 64.4 176.1Z" fill="#744C39"/>
<path d="M73.6 156L175.6 196L154.2 224.6L75.1 176C68.3 172 65.9 164.3 67.8 158.4C68.6 156.4 71.2 155.9 73.6 156Z" fill="#744C39"/>
<path d="M85.8 138.6L170.8 171.2L139.1 194L87.9 158.5C81.1 154.1 78 146.7 80.2 140.8C80.8 138.9 83.3 138 85.8 138.6Z" fill="#744C39"/>
<path d="M111.9 112.8L177.2 176.1L139.1 184.6L105.9 131.8C101.4 125.1 101.5 117.1 105.8 112.5C107.3 111.1 109.9 111.3 111.9 112.8Z" fill="#744C39"/>
<path d="M130.3 227.4L172.4 158.2L179.7 185.8C181.2 192 181.2 198.8 179.3 205L171.5 231.3C169.3 238.7 166.2 245.8 161.8 252.3L133.1 295.6L130.3 227.4Z" fill="#744C39"/>
<path d="M47.4 206.4C44.1 210.8 45 217.1 49.4 220.4L101.3 259.5C105.7 262.8 112 261.9 115.3 257.5L121.2 249.6L53.3 198.5L47.4 206.4Z" fill="#333333"/>
<path d="M53.3 198.5L127.1 100.7L194.943 151.692L121.2 249.6L53.3 198.5Z" fill="black"/>
<path d="M200.9 143.9C204.2 139.5 203.3 133.2 198.9 129.9L147 90.8C142.6 87.5 136.3 88.4 133 92.8L127.1 100.7L194.943 151.692L200.9 143.9Z" fill="#333333"/>
<path d="M105.1 163L113.5 169.3L112 171.3L105.9 166.7L103.7 169.6L109.6 174.1L108.1 176.1L102.2 171.6L100 174.6L106.1 179.2L104.6 181.2L96.2 174.9L105.1 163ZM127.5 198.9C130.1 200.8 132.4 200.7 133.7 199C134.6 197.8 134.4 196.3 132.9 194.5L131.3 192.7C130.4 191.7 130.2 191.2 130.5 190.8C130.9 190.3 131.7 190.3 132.7 191.1C133.8 191.9 134.3 192.8 133.8 193.9L136 195.6C137.3 193.7 136.9 191.5 134.2 189.4C131.9 187.7 129.5 187.4 128.1 189.2C127.1 190.5 127.4 192 129 193.9L130.8 196C131.5 196.8 131.6 197.2 131.3 197.5C130.9 198.1 130 197.9 129 197.2C127.7 196.2 127.2 195.4 127.6 194.2L125.4 192.5C124.2 194.5 124.7 196.8 127.5 198.9ZM122.5 194.8L120.1 193C118.6 191.9 118.5 190.3 119.4 189.1L122.9 184.4L121.2 183.1L122.7 181.1L124.4 182.4L126.3 179.9L128.5 181.6L126.6 184.1L129.1 186L127.6 188L125.1 186.1L122 190.2C121.6 190.7 121.8 191.1 122.3 191.5L124 192.8L122.5 194.8ZM119.5 178.7L118.9 179.5C118.6 178.2 117.9 177.1 116.9 176.4C116.3 175.9 115.6 175.6 114.9 175.4C114.2 175.2 113.4 175.1 112.6 175.2C111.8 175.3 111.1 175.6 110.4 175.9C109.7 176.3 109.2 176.8 108.7 177.4C108.2 178 107.9 178.7 107.7 179.5C107.5 180.2 107.5 181 107.6 181.8C107.7 182.6 108 183.3 108.4 184C108.8 184.7 109.3 185.2 110 185.7C111 186.5 112.3 186.9 113.6 186.8L113 187.6L115.2 189.3L121.8 180.5L119.5 178.7ZM111.5 183.9C111 183.5 110.6 183 110.3 182.3C110.1 181.7 110 181 110.2 180.3C110.4 179.7 110.7 179.1 111.2 178.6C111.7 178.2 112.3 177.9 113 177.8C113.7 177.7 114.3 177.8 114.9 178.1C115.5 178.4 116 178.8 116.3 179.4C116.6 180 116.8 180.6 116.8 181.3C116.8 182 116.5 182.6 116.1 183.1C115.8 183.5 115.5 183.8 115.1 184C114.7 184.2 114.3 184.4 113.9 184.4C113.5 184.5 113 184.4 112.6 184.3C112.3 184.3 111.9 184.1 111.5 183.9Z" fill="#06C167"/>
<path d="M147.6 179C146.5 178.2 145 178.4 144 179.8L140.3 184.7L138.6 183.4L145.1 174.7L146.8 176L146 177.1C146.5 176.9 147 176.8 147.5 176.9C148 177 148.5 177.2 148.9 177.5L149.5 178L148.3 179.6L147.6 179ZM140.7 178.2C142.7 175.6 142.3 172.3 139.8 170.4C139.2 170 138.5 169.6 137.8 169.5C137.1 169.4 136.3 169.3 135.6 169.4C134.9 169.5 134.2 169.8 133.5 170.1C132.8 170.4 132.3 171 131.9 171.6C130 174.2 130.5 177.7 133.1 179.6C133.8 180.2 134.7 180.5 135.5 180.7C136.4 180.9 137.3 180.8 138.2 180.6L137.6 178.7C137 178.9 136.4 178.9 135.8 178.8C135.2 178.7 134.6 178.4 134.2 178.1C133.5 177.6 133 176.8 132.8 176C132.6 175.1 132.7 174.3 133.2 173.5L140.3 178.8L140.7 178.2ZM134.3 172.1C135.6 171 137.3 170.9 138.6 171.9C139.9 172.9 140.3 174.6 139.6 176.1L134.3 172.1ZM129.9 163C129.3 162.6 128.7 162.3 128 162.1C127.3 161.9 126.6 161.9 125.9 162L129.2 157.7L127.5 156.4L118.5 168.3L120.2 169.6L121 168.5C121.2 169.9 122 171.3 123.1 172.1C123.7 172.6 124.4 172.9 125.1 173.1C125.8 173.3 126.6 173.4 127.3 173.3C128 173.2 128.8 173 129.4 172.6C130.1 172.2 130.6 171.7 131.1 171.1C131.6 170.5 131.9 169.8 132.1 169.1C132.3 168.4 132.3 167.6 132.2 166.9C132.1 166.2 131.8 165.4 131.4 164.8C131 164 130.5 163.4 129.9 163ZM124.1 170.4C123.5 170 123.1 169.3 122.8 168.6C122.6 167.9 122.5 167.1 122.7 166.4C122.9 165.7 123.3 165 123.8 164.5C124.4 164 125 163.7 125.8 163.6C126.6 163.5 127.3 163.6 128 163.9C128.7 164.2 129.2 164.7 129.6 165.4C130 166 130.2 166.8 130.1 167.5C130.1 168.2 129.8 169 129.3 169.6C129 170 128.6 170.3 128.2 170.6C127.8 170.9 127.3 171 126.8 171.1C126.3 171.2 125.8 171.1 125.3 171C124.9 171 124.5 170.7 124.1 170.4ZM113.2 162.1C114.9 163.3 117.1 163 118.5 161.2L124 153.8L125.8 155.1L116.8 167L115 165.7L115.8 164.6C115.1 164.7 114.3 164.7 113.6 164.5C112.9 164.3 112.2 164 111.6 163.5C109.1 161.6 108.5 158.3 110.6 155.4L116.2 147.9L118 149.3L112.5 156.7C111.2 158.7 111.5 160.8 113.2 162.1Z" fill="white"/>
<path d="M-2.5 374.6L83.8 383.4L121.2 320L141.192 287.556L60.5 295.1L-2.5 374.6Z" fill="#99644C"/>
<path d="M183 180.7C175.2 175.7 164.2 176.7 157.7 183.4L154.8 186.8C150.1 191.5 146.6 197 144.9 203.3C143.8 207.2 142.2 210.1 139.3 212.9C132.5 219.5 126.8 222.6 118 226.1C97 234.4 80.3 250.4 71.1 271.1L64.5 286.2L60.5 295.1L124.4 313.4L148.7 276C153 269.4 156 262.6 157.9 255L169.2 210.5C170.3 206.9 172 203.4 174.2 200.5L184.3 189.6C186.5 187.1 186.2 182.7 183 180.7Z" fill="#99644C"/>
</g>
<defs>
<clipPath id="clip0">
<rect width="657" height="371" fill="white"/>
</clipPath>
</defs>
</svg>
