<?xml version="1.0" encoding="UTF-8" standalone="no"?>
<!-- Created with Inkscape (http://www.inkscape.org/) -->

<svg
   version="1.1"
   id="svg2"
   width="1074.1693"
   height="582.53735"
   viewBox="0 0 1074.1693 582.53735"
   sodipodi:docname="visa-2021-seeklogo.com.ai"
   xmlns:inkscape="http://www.inkscape.org/namespaces/inkscape"
   xmlns:sodipodi="http://sodipodi.sourceforge.net/DTD/sodipodi-0.dtd"
   xmlns="http://www.w3.org/2000/svg"
   xmlns:svg="http://www.w3.org/2000/svg">
  <defs
     id="defs6">
    <linearGradient
       x1="0"
       y1="0"
       x2="1"
       y2="0"
       gradientUnits="userSpaceOnUse"
       gradientTransform="matrix(735.91272,0,0,-735.91272,34.85709,285.495)"
       spreadMethod="pad"
       id="linearGradient32">
      <stop
         style="stop-opacity:1;stop-color:#2c244a"
         offset="0"
         id="stop22" />
      <stop
         style="stop-opacity:1;stop-color:#2c244a"
         offset="0.0540673"
         id="stop24" />
      <stop
         style="stop-opacity:1;stop-color:#262b53"
         offset="0.360259"
         id="stop26" />
      <stop
         style="stop-opacity:1;stop-color:#1e3d7d"
         offset="0.683381"
         id="stop28" />
      <stop
         style="stop-opacity:1;stop-color:#1d1d38"
         offset="1"
         id="stop30" />
    </linearGradient>
    <linearGradient
       x1="0"
       y1="0"
       x2="1"
       y2="0"
       gradientUnits="userSpaceOnUse"
       gradientTransform="matrix(64.779999,0,0,-64.779999,501.21252,73.20742)"
       spreadMethod="pad"
       id="linearGradient58">
      <stop
         style="stop-opacity:1;stop-color:#2c244a"
         offset="0"
         id="stop48" />
      <stop
         style="stop-opacity:1;stop-color:#2c244a"
         offset="0.0540673"
         id="stop50" />
      <stop
         style="stop-opacity:1;stop-color:#262b53"
         offset="0.360259"
         id="stop52" />
      <stop
         style="stop-opacity:1;stop-color:#1e3d7d"
         offset="0.683381"
         id="stop54" />
      <stop
         style="stop-opacity:1;stop-color:#1d1d38"
         offset="1"
         id="stop56" />
    </linearGradient>
    <linearGradient
       x1="0"
       y1="0"
       x2="1"
       y2="0"
       gradientUnits="userSpaceOnUse"
       gradientTransform="matrix(49.921452,0,0,-49.921452,578.04193,62.097561)"
       spreadMethod="pad"
       id="linearGradient84">
      <stop
         style="stop-opacity:1;stop-color:#2c244a"
         offset="0"
         id="stop74" />
      <stop
         style="stop-opacity:1;stop-color:#2c244a"
         offset="0.0540673"
         id="stop76" />
      <stop
         style="stop-opacity:1;stop-color:#262b53"
         offset="0.360259"
         id="stop78" />
      <stop
         style="stop-opacity:1;stop-color:#1e3d7d"
         offset="0.683381"
         id="stop80" />
      <stop
         style="stop-opacity:1;stop-color:#1d1d38"
         offset="1"
         id="stop82" />
    </linearGradient>
    <linearGradient
       x1="0"
       y1="0"
       x2="1"
       y2="0"
       gradientUnits="userSpaceOnUse"
       gradientTransform="matrix(54.12685,0,0,-54.12685,643.17139,74.725471)"
       spreadMethod="pad"
       id="linearGradient110">
      <stop
         style="stop-opacity:1;stop-color:#2c244a"
         offset="0"
         id="stop100" />
      <stop
         style="stop-opacity:1;stop-color:#2c244a"
         offset="0.0540673"
         id="stop102" />
      <stop
         style="stop-opacity:1;stop-color:#262b53"
         offset="0.360259"
         id="stop104" />
      <stop
         style="stop-opacity:1;stop-color:#1e3d7d"
         offset="0.683381"
         id="stop106" />
      <stop
         style="stop-opacity:1;stop-color:#1d1d38"
         offset="1"
         id="stop108" />
    </linearGradient>
    <linearGradient
       x1="0"
       y1="0"
       x2="1"
       y2="0"
       gradientUnits="userSpaceOnUse"
       gradientTransform="matrix(12.734516,0,0,-12.734516,711.80731,73.327797)"
       spreadMethod="pad"
       id="linearGradient136">
      <stop
         style="stop-opacity:1;stop-color:#2c244a"
         offset="0"
         id="stop126" />
      <stop
         style="stop-opacity:1;stop-color:#2c244a"
         offset="0.0540673"
         id="stop128" />
      <stop
         style="stop-opacity:1;stop-color:#262b53"
         offset="0.360259"
         id="stop130" />
      <stop
         style="stop-opacity:1;stop-color:#1e3d7d"
         offset="0.683381"
         id="stop132" />
      <stop
         style="stop-opacity:1;stop-color:#1d1d38"
         offset="1"
         id="stop134" />
    </linearGradient>
    <linearGradient
       x1="0"
       y1="0"
       x2="1"
       y2="0"
       gradientUnits="userSpaceOnUse"
       gradientTransform="matrix(33.54541,0,0,-33.54541,736.95599,68.296997)"
       spreadMethod="pad"
       id="linearGradient162">
      <stop
         style="stop-opacity:1;stop-color:#2c244a"
         offset="0"
         id="stop152" />
      <stop
         style="stop-opacity:1;stop-color:#2c244a"
         offset="0.0540673"
         id="stop154" />
      <stop
         style="stop-opacity:1;stop-color:#262b53"
         offset="0.360259"
         id="stop156" />
      <stop
         style="stop-opacity:1;stop-color:#1e3d7d"
         offset="0.683381"
         id="stop158" />
      <stop
         style="stop-opacity:1;stop-color:#1d1d38"
         offset="1"
         id="stop160" />
    </linearGradient>
  </defs>
  <sodipodi:namedview
     id="namedview4"
     pagecolor="#ffffff"
     bordercolor="#000000"
     borderopacity="0.25"
     inkscape:showpageshadow="2"
     inkscape:pageopacity="0.0"
     inkscape:pagecheckerboard="0"
     inkscape:deskcolor="#d1d1d1" />
  <g
     id="g8"
     inkscape:groupmode="layer"
     inkscape:label="visa-2021-seeklogo.com"
     transform="matrix(1.3333333,0,0,-1.3333333,0,582.53733)">
    <g
       id="g10">
      <g
         id="g12">
        <g
           id="g18">
          <g
             id="g20">
            <path
               d="m 415.435,328.33 c -0.376,-33.075 29.528,-51.534 52.071,-62.55 v 0 c 23.161,-11.257 30.925,-18.485 30.845,-28.561 v 0 c -0.162,-15.422 -18.486,-22.221 -35.575,-22.489 v 0 c -29.904,-0.484 -47.26,8.06 -61.099,14.509 v 0 l -10.774,-50.364 c 13.892,-6.382 39.525,-11.93 66.15,-12.212 v 0 c 62.443,0 103.31,30.872 103.525,78.644 v 0 c 0.243,60.668 -83.91,64.014 -83.318,91.11 v 0 c 0.16,8.262 8.032,17.021 25.202,19.265 v 0 c 8.544,1.114 32,1.974 58.654,-10.292 v 0 l 10.424,48.741 c -14.294,5.212 -32.725,10.196 -55.618,10.196 v 0 c -58.761,0 -100.138,-31.248 -100.487,-75.997 m 256.566,71.793 c -11.392,0 -21.038,-6.638 -25.31,-16.861 v 0 L 557.488,170.263 h 62.415 l 12.413,34.311 h 76.28 l 7.173,-34.311 h 55.001 l -47.988,229.86 z m 8.733,-62.093 18.002,-86.329 h -49.304 z m -340.962,62.093 -49.168,-229.86 h 59.46 l 49.17,229.86 z m -87.98,0 -61.877,-156.455 -25.042,133.024 c -2.928,14.859 -14.522,23.431 -27.419,23.431 v 0 H 36.267 l -1.41,-6.678 c 20.768,-4.513 44.374,-11.781 58.653,-19.546 v 0 c 8.76,-4.756 11.258,-8.894 14.147,-20.193 v 0 l 47.396,-183.443 h 62.872 l 96.35,229.86 z"
               style="fill:url(#linearGradient32);stroke:none"
               id="path34" />
          </g>
        </g>
      </g>
    </g>
    <g
       id="g36">
      <g
         id="g38">
        <g
           id="g44">
          <g
             id="g46">
            <path
               d="M 501.213,111.502 V 34.093 c 5.144,-0.578 11.109,-0.925 18.485,-0.925 v 0 c 15.314,0 27.473,3.975 34.955,11.338 v 0 c 7.241,7.254 11.34,17.773 11.34,30.629 v 0 c 0,12.75 -4.099,21.872 -11.233,28.293 v 0 c -6.89,6.314 -17.303,9.82 -31.906,9.82 v 0 c -8.074,0 -15.436,-0.698 -21.641,-1.746 m 10.182,-69.684 v 62.321 c 2.687,0.578 6.664,1.049 11.916,1.049 v 0 c 21.522,0 32.041,-11.809 31.92,-30.402 v 0 c 0,-21.279 -11.689,-33.437 -33.559,-33.437 v 0 c -3.962,0 -7.711,0.12 -10.277,0.469"
               style="fill:url(#linearGradient58);stroke:none"
               id="path60" />
          </g>
        </g>
      </g>
    </g>
    <g
       id="g62">
      <g
         id="g64">
        <g
           id="g70">
          <g
             id="g72">
            <path
               d="m 578.042,61.231 c 0,-17.075 10.399,-28.655 27.823,-28.655 v 0 c 9.001,0 15.315,1.988 18.941,3.627 v 0 l -1.866,7.361 c -3.749,-1.626 -8.302,-2.915 -15.665,-2.915 v 0 c -10.411,0 -19.184,5.723 -19.412,19.641 v 0 h 39.751 c 0.228,1.169 0.349,2.687 0.349,4.797 v 0 c 0,10.397 -4.795,26.532 -23.388,26.532 v 0 c -16.484,0 -26.533,-13.327 -26.533,-30.388 m 25.714,23.026 c 11.58,0 14.388,-10.169 14.267,-16.605 v 0 H 587.97 c 0.82,7.134 5.266,16.605 15.786,16.605"
               style="fill:url(#linearGradient84);stroke:none"
               id="path86" />
          </g>
        </g>
      </g>
    </g>
    <g
       id="g88">
      <g
         id="g90">
        <g
           id="g96">
          <g
             id="g98">
            <path
               d="M 643.629,116.875 V 48.481 c 0,-5.024 -0.229,-10.76 -0.457,-14.617 v 0 h 8.758 l 0.592,9.244 h 0.228 c 4.325,-7.374 10.882,-10.532 19.063,-10.532 v 0 c 12.628,0 25.485,10.061 25.485,30.281 v 0 c 0,17.075 -9.82,28.762 -23.967,28.762 v 0 c -9.122,0 -15.664,-3.976 -19.292,-10.291 v 0 h -0.228 v 35.547 z m 10.639,-64.068 c -0.349,1.169 -0.457,2.459 -0.457,3.735 v 0 10.063 c 0,1.639 0.228,3.035 0.577,4.326 v 0 c 2.111,7.71 8.652,12.627 15.558,12.627 v 0 c 11.096,0 16.939,-9.712 16.939,-21.05 v 0 c 0,-12.978 -6.3,-21.751 -17.181,-21.751 v 0 c -7.482,0 -13.555,4.917 -15.436,12.05"
               style="fill:url(#linearGradient110);stroke:none"
               id="path112" />
          </g>
        </g>
      </g>
    </g>
    <g
       id="g114">
      <g
         id="g116">
        <g
           id="g122">
          <g
             id="g124">
            <path
               d="m 711.807,106.357 c 0,-3.507 2.445,-6.315 6.193,-6.315 v 0 c 4.083,0 6.542,2.808 6.542,6.315 v 0 c 0,3.626 -2.566,6.434 -6.313,6.434 v 0 c -3.856,0 -6.422,-2.929 -6.422,-6.434 m 1.276,-72.493 h 10.292 V 90.45 h -10.292 z"
               style="fill:url(#linearGradient136);stroke:none"
               id="path138" />
          </g>
        </g>
      </g>
    </g>
    <g
       id="g140">
      <g
         id="g142">
        <g
           id="g148">
          <g
             id="g150">
            <path
               d="M 745.715,100.982 V 90.45 h -8.759 v -7.832 h 8.759 V 51.76 c 0,-6.665 1.169,-11.702 3.977,-14.859 v 0 c 2.459,-2.687 6.314,-4.325 11.11,-4.325 v 0 c 3.975,0 7.132,0.699 9.122,1.41 v 0 l -0.471,7.832 c -1.519,-0.469 -3.157,-0.698 -5.965,-0.698 v 0 c -5.722,0 -7.712,3.975 -7.712,10.989 v 0 30.509 h 14.726 v 7.832 h -14.726 v 13.568 z"
               style="fill:url(#linearGradient162);stroke:none"
               id="path164" />
          </g>
        </g>
      </g>
    </g>
  </g>
</svg>
