<svg xmlns="http://www.w3.org/2000/svg" width="32" height="32" viewBox="0 0 35.558 35.558">
    <g fill="none" fill-rule="evenodd">
        <path fill="#2196F3" d="M35.429,17.817c0.079,9.473-7.805,17.467-17.232,17.609C8.48,35.572,0.39,27.842,0.24,18.098   C0.091,8.386,7.836,0.38,17.472,0.24C27.454,0.096,35.347,7.876,35.429,17.817z M29.192,17.846c0-2.084-0.004-4.167,0.006-6.251   c0.001-0.248-0.076-0.385-0.292-0.509c-3.61-2.075-7.217-4.156-10.819-6.246c-0.201-0.117-0.337-0.096-0.523,0.012   c-3.603,2.087-7.209,4.17-10.819,6.245c-0.208,0.12-0.273,0.253-0.273,0.485c0.006,4.167,0.006,8.334,0,12.501   c0,0.222,0.067,0.345,0.261,0.456c3.61,2.076,7.216,4.157,10.819,6.245c0.2,0.116,0.343,0.129,0.553,0.007   c3.602-2.09,7.208-4.171,10.819-6.245c0.207-0.119,0.273-0.252,0.273-0.483C29.188,21.99,29.192,19.918,29.192,17.846z"/>
        <path fill="#FFFFFF" d="M29.192,17.846c0,2.072-0.004,4.144,0.005,6.216c0.001,0.232-0.066,0.365-0.273,0.483   c-3.61,2.075-7.217,4.156-10.819,6.245c-0.21,0.122-0.353,0.109-0.553-0.007c-3.603-2.087-7.209-4.169-10.819-6.245   c-0.193-0.111-0.261-0.234-0.261-0.456c0.007-4.167,0.007-8.334,0-12.501c0-0.231,0.065-0.365,0.273-0.485   c3.61-2.075,7.216-4.158,10.819-6.245c0.186-0.108,0.321-0.128,0.523-0.012c3.602,2.09,7.208,4.171,10.819,6.246   c0.216,0.124,0.293,0.261,0.292,0.509C29.188,13.679,29.192,15.762,29.192,17.846z M24.314,17.836c0-1.15-0.006-2.3,0.005-3.45   c0.002-0.22-0.062-0.343-0.26-0.456c-1.976-1.129-3.947-2.266-5.912-3.413c-0.224-0.131-0.383-0.143-0.615-0.008   c-1.964,1.149-3.936,2.285-5.911,3.415c-0.191,0.109-0.272,0.222-0.271,0.449c0.009,2.3,0.008,4.6,0.001,6.9   c-0.001,0.209,0.064,0.327,0.246,0.431c2.004,1.148,4.005,2.301,6.002,3.463c0.187,0.109,0.315,0.091,0.492-0.012   c1.987-1.155,3.978-2.304,5.973-3.445c0.196-0.112,0.259-0.239,0.257-0.46C24.308,20.114,24.314,18.975,24.314,17.836z"/>
        <path fill="#2196F3" d="M24.314,17.836c0,1.139-0.006,2.277,0.005,3.416c0.002,0.221-0.06,0.348-0.257,0.46   c-1.995,1.141-3.986,2.29-5.973,3.445c-0.177,0.103-0.305,0.12-0.492,0.012c-1.996-1.162-3.997-2.315-6.002-3.463   c-0.182-0.104-0.246-0.223-0.246-0.431c0.007-2.3,0.008-4.6-0.001-6.9c-0.001-0.227,0.081-0.34,0.271-0.449   c1.975-1.13,3.947-2.266,5.911-3.415c0.231-0.135,0.391-0.123,0.615,0.008c1.965,1.147,3.937,2.284,5.912,3.413   c0.197,0.113,0.262,0.236,0.26,0.456C24.308,15.536,24.314,16.686,24.314,17.836z"/>
    </g>
</svg>
