<?xml version="1.0" encoding="utf-8"?>
<!-- Generator: Adobe Illustrator 23.0.1, SVG Export Plug-In . SVG Version: 6.00 Build 0)  -->
<svg version="1.1" id="Layer_1" xmlns="http://www.w3.org/2000/svg" xmlns:xlink="http://www.w3.org/1999/xlink" x="0px" y="0px"
	 viewBox="0 0 930 788.8" style="enable-background:new 0 0 930 788.8;" xml:space="preserve">
<style type="text/css">
	.st0{opacity:0.3;}
	.st1{fill:none;stroke:#3273DC;stroke-width:3;stroke-miterlimit:10;}
	.st2{fill:none;stroke:#3273DC;stroke-width:3;stroke-miterlimit:10;stroke-dasharray:11.69,11.69;}
	.st3{fill:none;stroke:#3273DC;stroke-width:3;stroke-miterlimit:10;stroke-dasharray:12.8,12.8;}
	.st4{opacity:0.5;}
	.st5{fill:url(#SVGID_1_);}
	.st6{fill:#FFFFFF;}
	.st7{fill:url(#SVGID_2_);}
	.st8{opacity:0.13;fill:#08A742;enable-background:new    ;}
	.st9{fill-rule:evenodd;clip-rule:evenodd;fill:#26292C;}
	.st10{opacity:0.96;fill:#3273DC;enable-background:new    ;}
	.st11{opacity:0.91;fill:#3273DC;enable-background:new    ;}
	.st12{opacity:0.67;fill:#3273DC;enable-background:new    ;}
	.st13{opacity:0.3;fill:#3273DC;enable-background:new    ;}
	.st14{fill:none;}
	.st15{fill:url(#SVGID_3_);}
	.st16{fill:url(#SVGID_4_);}
	.st17{opacity:0.13;fill:#F37622;enable-background:new    ;}
	.st18{fill:#4F4F4F;}
	.st19{fill:#F37622;}
	.st20{fill:url(#SVGID_5_);}
	.st21{fill:url(#SVGID_6_);}
	.st22{fill:#F5F5F5;}
	.st23{fill:url(#SVGID_7_);}
	.st24{fill:#3273DC;}
	.st25{font-family:'MarkPro-Bold';}
	.st26{font-size:20.7421px;}
	.st27{fill-rule:evenodd;clip-rule:evenodd;fill:#32325D;}
	.st28{fill:#FF4A00;}
	.st29{fill:#13B5EA;}
</style>
<g class="st0">
	<line class="st1" x1="423.1" y1="124.9" x2="429.1" y2="124.9"/>
	<line class="st2" x1="440.8" y1="124.9" x2="668.7" y2="124.9"/>
	<polyline class="st1" points="674.6,124.9 680.6,124.9 680.6,130.9 	"/>
	<line class="st3" x1="680.6" y1="143.7" x2="680.6" y2="265.4"/>
	<line class="st1" x1="680.6" y1="271.8" x2="680.6" y2="277.8"/>
</g>
<title>transfer files</title>
<g class="st4">
	
		<linearGradient id="SVGID_1_" gradientUnits="userSpaceOnUse" x1="394.2609" y1="-101.4433" x2="394.2609" y2="-468.3423" gradientTransform="matrix(0.9884 0.1519 -0.1519 0.9884 -31.0279 432.0697)">
		<stop  offset="0" style="stop-color:#808080;stop-opacity:0.25"/>
		<stop  offset="0.54" style="stop-color:#808080;stop-opacity:0.12"/>
		<stop  offset="1" style="stop-color:#808080;stop-opacity:0.1"/>
	</linearGradient>
	<polygon class="st5" points="298.6,8.9 561.03,49.24 505.28,411.88 242.85,371.54 	"/>
</g>
<rect x="222.75" y="79.65" transform="matrix(0.1519 -0.9884 0.9884 0.1519 134.4232 574.7658)" class="st6" width="358.79" height="258.79"/>
<g class="st4">
	
		<linearGradient id="SVGID_2_" gradientUnits="userSpaceOnUse" x1="395.0799" y1="-101.4433" x2="395.0799" y2="-468.3423" gradientTransform="matrix(0.9884 0.1519 -0.1519 0.9884 -31.0279 432.0697)">
		<stop  offset="0" style="stop-color:#808080;stop-opacity:0.25"/>
		<stop  offset="0.54" style="stop-color:#808080;stop-opacity:0.12"/>
		<stop  offset="1" style="stop-color:#808080;stop-opacity:0.1"/>
	</linearGradient>
	<polygon class="st7" points="299.41,9.02 561.84,49.36 506.09,412 243.66,371.66 	"/>
</g>
<rect x="223.56" y="79.78" transform="matrix(0.1519 -0.9884 0.9884 0.1519 134.9867 575.6714)" class="st6" width="358.79" height="258.79"/>
<rect x="403.48" y="99.86" transform="matrix(0.1519 -0.9884 0.9884 0.1519 161.5879 559.3703)" class="st8" width="6.55" height="171.33"/>
<rect x="408.39" y="78.47" transform="matrix(0.1519 -0.9884 0.9884 0.1519 186.895 546.0886)" class="st8" width="6.55" height="171.33"/>
<rect x="316.99" y="23.97" transform="matrix(0.1519 -0.9884 0.9884 0.1519 145.1454 426.2919)" class="st8" width="8" height="209.2"/>
<rect x="397.27" y="147.67" transform="matrix(0.1519 -0.9884 0.9884 0.1519 110.7222 592.3615)" class="st8" width="6.55" height="167.97"/>
<g>
	<path class="st9" d="M355.86,69.83c0.62-3.9,2.99-4.9,4.87-4.6c2.42,0.39,3.69,2.79,3.2,5.89c-0.58,3.63-2.85,4.92-5,4.58
		C356.24,75.27,355.45,72.39,355.86,69.83z M362.53,60.82c-2.82-0.45-4.79,0.62-5.72,1.3c-0.01-0.83-0.26-1.83-2.28-2.16l-4.3-0.68
		l-0.73,4.57l1.75,0.28c0.27,0.04,0.38,0.2,0.34,0.47l-3.32,20.85l5.11,0.81l1.24-7.8c0.04-0.27,0.06-0.4,0.09-0.54
		c0.68,0.94,2.01,2.11,4.43,2.5c4.98,0.79,9.12-2.69,10.04-8.47C370.12,66.03,367.38,61.59,362.53,60.82"/>
	<path class="st9" d="M375.33,77.48l1.75-11.03c0.3-1.88-0.49-2.97-2.24-3.25l-4.57-0.73l-0.73,4.57l1.75,0.28
		c0.27,0.04,0.38,0.2,0.34,0.47l-1.75,11.03c-0.3,1.88,0.36,2.95,2.24,3.25l4.57,0.73l0.73-4.57l-1.75-0.28
		C375.4,77.9,375.29,77.75,375.33,77.48"/>
	<path class="st9" d="M387.71,80.28c-2.82-0.45-3.61-3.33-3.22-5.75c0.62-3.9,2.99-4.9,4.87-4.6c2.42,0.39,3.69,2.79,3.2,5.89
		C392,79.3,389.73,80.6,387.71,80.28 M391.05,65.36c-2.82-0.45-4.79,0.62-5.72,1.3c-0.01-0.83-0.26-1.83-2.28-2.16l-4.3-0.68
		l-0.73,4.57l1.75,0.28c0.27,0.04,0.38,0.2,0.34,0.47l-3.32,20.85l5.11,0.81l1.24-7.8c0.04-0.27,0.06-0.4,0.09-0.54
		c0.68,0.94,2.01,2.11,4.43,2.5c4.98,0.79,9.12-2.69,10.04-8.47C398.77,70.59,396.03,66.15,391.05,65.36 M404.04,74.74
		c0.84-1.8,2.47-2.5,4.35-2.2c1.61,0.26,2.5,1.64,2.51,3.3L404.04,74.74L404.04,74.74z M409.07,68.23
		c-5.51-0.88-10.06,2.54-10.98,8.32c-0.9,5.65,2.61,10.48,8.39,11.4c4.57,0.73,7.69-1.53,7.85-1.65l0.31-0.23l-1.69-4.13l-0.31,0.23
		c0,0-2.32,1.56-5.01,1.13c-2.56-0.41-4.18-2.32-4.2-4.81l12.24,1.95l0.06-0.4c0,0,0.33-1.19,0.41-1.73
		C416.72,73.03,414.05,69.02,409.07,68.23L409.07,68.23z M424.43,86.12c-2.42-0.39-3.71-2.66-3.2-5.89c0.49-3.09,2.45-4.99,4.87-4.6
		c2.82,0.45,3.63,3.2,3.22,5.75C428.84,85.3,426.45,86.44,424.43,86.12 M433.71,86.77l2.89-18.16c0.3-1.88-0.49-2.97-2.24-3.25
		l-4.57-0.73l-0.73,4.57l1.75,0.28c0.27,0.04,0.38,0.2,0.34,0.47l-0.54,3.36c-0.7-0.8-2.03-1.98-4.59-2.38
		c-4.98-0.79-9.12,2.69-10.04,8.47c-0.92,5.78,1.8,10.35,6.78,11.15c2.82,0.45,4.65-0.64,5.61-1.45c0.01,0.83,0.37,1.99,2.26,2.29
		l4.44,0.71l0.73-4.57l-1.75-0.28C433.78,87.19,433.67,87.03,433.71,86.77 M449.54,74.8c-2.15-0.34-4.36,0.55-5.76,2.39l0.06-0.4
		c0.28-1.75-0.54-2.71-2.28-2.98l-4.44-0.71l-0.73,4.57l1.75,0.28c0.27,0.04,0.38,0.2,0.34,0.47l-2.18,13.72l5.11,0.81l1.2-7.53
		c0.15-0.94,0.43-1.86,0.85-2.76c1.21-2.43,3.38-3.05,5-2.79c0.54,0.09,1.08,0.17,1.08,0.17l0.4,0.06l0.79-4.98l-0.27-0.04
		C450.33,75.07,449.94,74.87,449.54,74.8 M455.77,90.28l1.75-11.03c0.3-1.88-0.49-2.97-2.24-3.25l-4.17-0.66l-0.73,4.57l1.35,0.21
		c0.27,0.04,0.38,0.2,0.34,0.47l-1.75,11.03c-0.3,1.88,0.36,2.95,2.24,3.25l4.57,0.73l0.73-4.57l-1.75-0.28
		C455.84,90.7,455.72,90.54,455.77,90.28"/>
	<path class="st9" d="M477.34,79.5l-2.69-0.43c-1.61-0.26-2.51,0.15-3.26,1.41l-4.86,8.88c-0.2,0.38-0.4,0.76-0.44,1.03
		c-0.07-0.42-0.14-0.85-0.23-1.14l-1.86-9.95c-0.32-1.43-1.05-2.1-2.66-2.35l-2.96-0.47l-0.73,4.57l0.81,0.13
		c0.4,0.06,0.52,0.22,0.61,0.51l3.06,14.55l5.78,0.92l7.43-12.89c0.18-0.25,0.33-0.36,0.74-0.3l0.81,0.13l0.73-4.57L477.34,79.5z
		 M481.25,87.02c0.84-1.8,2.47-2.5,4.35-2.2c1.61,0.26,2.5,1.64,2.51,3.3L481.25,87.02z M486.28,80.51
		c-5.51-0.88-10.06,2.54-10.98,8.32c-0.9,5.65,2.61,10.48,8.39,11.4c4.57,0.73,7.69-1.53,7.85-1.65l0.31-0.23l-1.69-4.13l-0.45,0.2
		c0,0-2.32,1.56-5.01,1.13c-2.56-0.41-4.18-2.32-4.2-4.81l12.24,1.95l0.06-0.4c0,0,0.33-1.19,0.41-1.73
		C494.07,85.33,491.26,81.3,486.28,80.51z M378.38,56.59l-4.57-0.73l-0.77,4.84l4.57,0.73L378.38,56.59z M458.82,69.38l-4.57-0.73
		l-0.77,4.84l4.57,0.73L458.82,69.38z"/>
</g>
<rect x="392.98" y="168.18" transform="matrix(0.1519 -0.9884 0.9884 0.1519 85.1561 606.9292)" class="st8" width="6.55" height="171.33"/>
<rect x="389.47" y="191" transform="matrix(0.1519 -0.9884 0.9884 0.1519 59.6185 622.8198)" class="st8" width="6.55" height="171.33"/>
<rect x="437.37" y="273.74" transform="matrix(0.1519 -0.9884 0.9884 0.1519 69.9533 696.1589)" class="st8" width="6.55" height="67.16"/>
<rect x="433.87" y="296.56" transform="matrix(0.1519 -0.9884 0.9884 0.1519 44.4156 712.0494)" class="st8" width="6.55" height="67.16"/>
<g class="st0">
	<line class="st1" x1="515.7" y1="659.9" x2="509.7" y2="659.9"/>
	<line class="st2" x1="498" y1="659.9" x2="270.1" y2="659.9"/>
	<polyline class="st1" points="264.2,659.9 258.2,659.9 258.2,653.9 	"/>
	<line class="st3" x1="258.2" y1="641.1" x2="258.2" y2="519.4"/>
	<line class="st1" x1="258.2" y1="513" x2="258.2" y2="507"/>
</g>
<path class="st10" d="M585.3,265.6c-1.7-0.8-2.6-2.7-2-4.4c0-0.1,0.1-0.3,0.1-0.4l0,0c0.1-1-0.7-1.9-1.7-2c-0.6,0-1.2,0.2-1.6,0.7
	l0,0c-0.1,0.1-0.1,0.2-0.2,0.4c-0.8,1.7-2.7,2.6-4.4,2c-0.1,0-0.3-0.1-0.4-0.1l0,0c-1-0.1-1.9,0.7-2,1.7c0,0.6,0.2,1.2,0.7,1.6l0,0
	c0.1,0.1,0.2,0.1,0.4,0.2c1.7,0.8,2.6,2.7,2,4.4c0,0.1-0.1,0.3-0.1,0.4l0,0c-0.1,1,0.7,1.9,1.7,2c0.6,0,1.2-0.2,1.6-0.7l0,0
	c0.1-0.1,0.1-0.2,0.2-0.4c0.8-1.7,2.7-2.6,4.4-2c0.1,0,0.3,0.1,0.4,0.1l0,0c1,0.1,1.9-0.7,2-1.7c0-0.6-0.2-1.2-0.7-1.6l0,0
	C585.6,265.8,585.5,265.7,585.3,265.6z"/>
<path class="st10" d="M654.3,57.6c-1.7-0.8-2.6-2.7-2-4.4c0-0.1,0.1-0.3,0.1-0.4l0,0c0.1-1-0.7-1.9-1.7-2c-0.6,0-1.2,0.2-1.6,0.7
	l0,0c-0.1,0.1-0.1,0.2-0.2,0.4c-0.8,1.7-2.7,2.6-4.4,2c-0.1,0-0.3-0.1-0.4-0.1l0,0c-1-0.1-1.9,0.7-2,1.7c0,0.6,0.2,1.2,0.7,1.6l0,0
	c0.1,0.1,0.2,0.1,0.4,0.2c1.7,0.8,2.6,2.7,2,4.4c0,0.1-0.1,0.3-0.1,0.4l0,0c-0.1,1,0.7,1.9,1.7,2c0.6,0,1.2-0.2,1.6-0.7l0,0
	c0.1-0.1,0.1-0.2,0.2-0.4c0.8-1.7,2.7-2.6,4.4-2c0.1,0,0.3,0.1,0.4,0.1l0,0c1,0.1,1.9-0.7,2-1.7c0-0.6-0.2-1.2-0.7-1.6l0,0
	C654.6,57.8,654.5,57.7,654.3,57.6z"/>
<path class="st11" d="M831.1,242.3c-3.6-1.6-5.5-5.6-4.3-9.4c0.1-0.3,0.1-0.6,0.2-0.9l0,0c0.2-2.1-1.5-4-3.6-4.1
	c-1.3-0.1-2.6,0.5-3.4,1.6l0,0c-0.2,0.2-0.3,0.5-0.4,0.8c-1.6,3.6-5.6,5.5-9.4,4.3c-0.3-0.1-0.6-0.1-0.9-0.2l0,0
	c-2.1-0.2-4,1.5-4.1,3.6c-0.1,1.3,0.5,2.6,1.6,3.4l0,0c0.2,0.2,0.5,0.3,0.8,0.4c3.6,1.6,5.5,5.6,4.3,9.4c-0.1,0.3-0.1,0.6-0.2,0.9
	l0,0c-0.2,2.1,1.5,4,3.6,4.1c1.3,0.1,2.6-0.5,3.4-1.6l0,0c0.2-0.2,0.3-0.5,0.4-0.8c1.6-3.6,5.6-5.5,9.4-4.3c0.3,0.1,0.6,0.1,0.9,0.2
	l0,0c2.1,0.2,4-1.5,4.1-3.6c0.1-1.3-0.5-2.6-1.6-3.4l0,0C831.7,242.5,831.4,242.4,831.1,242.3z"/>
<path class="st11" d="M191.1,714.3c-3.6-1.6-5.5-5.6-4.3-9.4c0.1-0.3,0.1-0.6,0.2-0.9l0,0c0.2-2.1-1.5-4-3.6-4.1
	c-1.3-0.1-2.6,0.5-3.4,1.6l0,0c-0.2,0.2-0.3,0.5-0.4,0.8c-1.6,3.6-5.6,5.5-9.4,4.3c-0.3-0.1-0.6-0.1-0.9-0.2l0,0
	c-2.1-0.2-4,1.5-4.1,3.6c-0.1,1.3,0.5,2.6,1.6,3.4l0,0c0.2,0.2,0.5,0.3,0.8,0.4c3.6,1.6,5.5,5.6,4.3,9.4c-0.1,0.3-0.1,0.6-0.2,0.9
	l0,0c-0.2,2.1,1.5,4,3.6,4.1c1.3,0.1,2.6-0.5,3.4-1.6l0,0c0.2-0.2,0.3-0.5,0.4-0.8c1.6-3.6,5.6-5.5,9.4-4.3c0.3,0.1,0.6,0.1,0.9,0.2
	l0,0c2.1,0.2,4-1.5,4.1-3.6c0.1-1.3-0.5-2.6-1.6-3.4l0,0C191.7,714.5,191.4,714.4,191.1,714.3z"/>
<path class="st12" d="M521.1,542.5c-3.9,0.8-7.7-1.5-8.9-5.2c-0.1-0.3-0.2-0.5-0.3-0.8l0,0c-1.1-1.8-3.5-2.4-5.3-1.3
	c-1.1,0.7-1.8,1.9-1.9,3.2l0,0c0,0.3,0,0.6,0.1,0.9c0.8,3.9-1.5,7.7-5.2,8.9c-0.3,0.1-0.5,0.2-0.8,0.3l0,0c-1.8,1.1-2.4,3.5-1.3,5.3
	c0.7,1.1,1.9,1.8,3.2,1.9l0,0c0.3,0,0.6,0,0.9-0.1c3.9-0.8,7.7,1.5,8.9,5.2c0.1,0.3,0.2,0.5,0.3,0.8l0,0c1.1,1.8,3.5,2.4,5.3,1.3
	c1.1-0.7,1.8-1.9,1.9-3.2l0,0c0-0.3,0-0.6-0.1-0.9c-0.8-3.9,1.5-7.7,5.2-8.9c0.3-0.1,0.5-0.2,0.8-0.3l0,0c1.8-1.1,2.4-3.5,1.3-5.3
	c-0.7-1.1-1.9-1.8-3.2-1.9l0,0C521.7,542.4,521.4,542.4,521.1,542.5z"/>
<path class="st12" d="M27.2,421.7c-3.9,0.8-7.7-1.5-8.9-5.2c-0.1-0.3-0.2-0.5-0.3-0.8l0,0c-1.1-1.8-3.5-2.4-5.3-1.3
	c-1.1,0.7-1.8,1.9-1.9,3.2l0,0c0,0.3,0,0.6,0.1,0.9c0.8,3.9-1.5,7.7-5.2,8.9c-0.3,0.1-0.5,0.2-0.8,0.3l0,0c-1.8,1.1-2.4,3.5-1.3,5.3
	c0.7,1.1,1.9,1.8,3.2,1.9l0,0c0.3,0,0.6,0,0.9-0.1c3.9-0.8,7.7,1.5,8.9,5.2c0.1,0.3,0.2,0.5,0.3,0.8l0,0c1.1,1.8,3.5,2.4,5.3,1.3
	c1.1-0.7,1.8-1.9,1.9-3.2l0,0c0-0.3,0-0.6-0.1-0.9c-0.8-3.9,1.5-7.7,5.2-8.9c0.3-0.1,0.5-0.2,0.8-0.3l0,0c1.8-1.1,2.4-3.5,1.3-5.3
	c-0.7-1.1-1.9-1.8-3.2-1.9l0,0C27.8,421.6,27.5,421.6,27.2,421.7z"/>
<path class="st13" d="M363,594.1c-1.7-0.8-2.6-2.7-2-4.4c0-0.1,0.1-0.3,0.1-0.4l0,0c0.1-1-0.7-1.9-1.7-2c-0.6,0-1.2,0.2-1.6,0.7l0,0
	c-0.1,0.1-0.1,0.2-0.2,0.4c-0.8,1.7-2.7,2.6-4.4,2c-0.1,0-0.3-0.1-0.4-0.1l0,0c-1-0.1-1.9,0.7-2,1.7c0,0.6,0.2,1.2,0.7,1.6l0,0
	c0.1,0.1,0.2,0.1,0.4,0.2c1.7,0.8,2.6,2.7,2,4.4c0,0.1-0.1,0.3-0.1,0.4l0,0c-0.1,1,0.7,1.9,1.7,2c0.6,0,1.2-0.2,1.6-0.7l0,0
	c0.1-0.1,0.1-0.2,0.2-0.4c0.8-1.7,2.7-2.6,4.4-2c0.1,0,0.3,0.1,0.4,0.1l0,0c1,0.1,1.9-0.7,2-1.7c0-0.6-0.2-1.2-0.7-1.6l0,0
	C363.2,594.3,363.1,594.2,363,594.1z"/>
<path class="st13" d="M76,41.1c-1.7-0.8-2.6-2.7-2-4.4c0-0.1,0.1-0.3,0.1-0.4l0,0c0.1-1-0.7-1.9-1.7-2c-0.6,0-1.2,0.2-1.6,0.7l0,0
	c-0.1,0.1-0.1,0.2-0.2,0.4c-0.8,1.7-2.7,2.6-4.4,2c-0.1,0-0.3-0.1-0.4-0.1l0,0c-1-0.1-1.9,0.7-2,1.7c0,0.6,0.2,1.2,0.7,1.6l0,0
	c0.1,0.1,0.2,0.1,0.4,0.2c1.7,0.8,2.6,2.7,2,4.4c0,0.1-0.1,0.3-0.1,0.4l0,0c-0.1,1,0.7,1.9,1.7,2c0.6,0,1.2-0.2,1.6-0.7l0,0
	c0.1-0.1,0.1-0.2,0.2-0.4c0.8-1.7,2.7-2.6,4.4-2c0.1,0,0.3,0.1,0.4,0.1l0,0c1,0.1,1.9-0.7,2-1.7c0-0.6-0.2-1.2-0.7-1.6l0,0
	C76.2,41.3,76.1,41.2,76,41.1z"/>
<path class="st14" d="M270.2,108.3c-0.6-0.8-1.3-1.5-2.2-2c-0.9-0.4-1.8-0.6-2.8-0.6H265c-1.1,0-2.2,0.3-3.1,0.9s-1.7,1.4-2.2,2.3
	s-0.8,1.9-0.8,3v0.3c0,1,0.3,2,0.9,2.8c0.6,0.9,1.4,1.6,2.3,2.2c0.8,0.4,1.7,0.6,2.7,0.6h0.3c3.2-0.3,5.6-2.9,5.7-6.1v-0.6
	C271.1,110.1,270.8,109.1,270.2,108.3z"/>
<path class="st14" d="M253.1,75.23c-3.26,0.06-5.88,2.83-5.83,6.09c0.06,3.26,2.83,5.88,6.09,5.83c3.26-0.06,5.88-2.83,5.83-6.09
	c-0.02-0.18-0.06-0.46-0.08-0.64C258.7,77.38,256.17,75.1,253.1,75.23z"/>
<path class="st14" d="M210.3,81.13c-3.26,0.06-5.88,2.83-5.83,6.09s2.83,5.88,6.09,5.83s5.88-2.83,5.83-6.09
	c-0.02-0.18-0.06-0.46-0.08-0.64C215.99,83.28,213.36,81.01,210.3,81.13z"/>
<g>
	<g class="st4">
		
			<linearGradient id="SVGID_3_" gradientUnits="userSpaceOnUse" x1="183.1407" y1="-2.2637" x2="183.1407" y2="-408.364" gradientTransform="matrix(0.9915 -0.1304 0.1304 0.9915 30.6862 494.7433)">
			<stop  offset="0" style="stop-color:#808080;stop-opacity:0.25"/>
			<stop  offset="0.54" style="stop-color:#808080;stop-opacity:0.12"/>
			<stop  offset="1" style="stop-color:#808080;stop-opacity:0.1"/>
		</linearGradient>
		<polygon class="st15" points="13.34,85.14 304.71,46.83 357.65,449.47 66.28,487.78 		"/>
	</g>
	
		<rect x="42.08" y="67.26" transform="matrix(0.9915 -0.1304 0.1304 0.9915 -33.074 26.4267)" class="st6" width="286.45" height="397.13"/>
	<g class="st4">
		
			<linearGradient id="SVGID_4_" gradientUnits="userSpaceOnUse" x1="184.0472" y1="-2.2637" x2="184.0472" y2="-408.364" gradientTransform="matrix(0.9915 -0.1304 0.1304 0.9915 30.6862 494.7433)">
			<stop  offset="0" style="stop-color:#808080;stop-opacity:0.25"/>
			<stop  offset="0.54" style="stop-color:#808080;stop-opacity:0.12"/>
			<stop  offset="1" style="stop-color:#808080;stop-opacity:0.1"/>
		</linearGradient>
		<polygon class="st16" points="14.24,85.03 305.61,46.71 358.55,449.35 67.18,487.66 		"/>
	</g>
	
		<rect x="42.98" y="67.14" transform="matrix(0.9915 -0.1304 0.1304 0.9915 -33.0509 26.5428)" class="st6" width="286.45" height="397.13"/>
	
		<rect x="85.29" y="218.11" transform="matrix(0.9915 -0.1304 0.1304 0.9915 -27.8915 17.6875)" class="st17" width="71.7" height="7.52"/>
	
		<rect x="88.11" y="235.77" transform="matrix(0.9915 -0.1304 0.1304 0.9915 -29.6486 25.8911)" class="st17" width="189.63" height="7.25"/>
	
		<rect x="94.78" y="286.61" transform="matrix(0.9915 -0.1304 0.1304 0.9915 -36.2358 26.9522)" class="st17" width="185.92" height="7.25"/>
	
		<rect x="98.08" y="311.62" transform="matrix(0.9915 -0.1304 0.1304 0.9915 -39.4526 27.8388)" class="st17" width="189.63" height="7.25"/>
	
		<rect x="101.41" y="336.96" transform="matrix(0.9915 -0.1304 0.1304 0.9915 -42.7283 28.4896)" class="st17" width="189.63" height="7.25"/>
	
		<rect x="219.46" y="354.71" transform="matrix(0.9915 -0.1304 0.1304 0.9915 -44.527 36.5142)" class="st17" width="74.33" height="7.25"/>
	
		<rect x="222.79" y="380.06" transform="matrix(0.9915 -0.1304 0.1304 0.9915 -47.8027 37.165)" class="st17" width="74.33" height="7.25"/>
	<g>
		<polygon class="st18" points="107.99,135.36 98.17,136.65 96.84,126.5 92.35,127.09 95.63,152.04 100.12,151.45 98.75,141.05 
			108.57,139.76 109.93,150.16 114.42,149.57 111.14,124.62 106.65,125.21 		"/>
		<path class="st18" d="M127.73,139.44c0.27,2.08-1.17,3.96-3.25,4.23s-3.96-1.17-4.23-3.25l-1.41-10.73l-4.32,0.57l1.41,10.73
			c0.59,4.49,4.73,7.67,9.22,7.08s7.67-4.73,7.08-9.22l-1.41-10.73l-4.24,0.56l1.41,10.73L127.73,139.44z"/>
		<path class="st18" d="M142.88,126.62c-1.92,0.17-3.65,1.16-4.8,2.75l-1.07-8.15l-4.41,0.58l2.01,15.3
			c0.41,5.02,4.88,8.83,9.91,8.43c0.08-0.01,0.08-0.01,0.17-0.02c5.25-0.61,9.03-5.33,8.42-10.58
			C152.52,129.84,147.97,126.12,142.88,126.62z M144.91,141.41c-2.87,0.72-5.81-1.1-6.53-3.96c-0.72-2.87,1.1-5.81,3.96-6.53
			c2.87-0.72,5.81,1.1,6.53,3.96c0.02,0.17,0.05,0.42,0.08,0.58C149.31,138.21,147.61,140.72,144.91,141.41L144.91,141.41z"/>
		<path class="st18" d="M159.41,125.63c-0.36-1.48,0.55-2.86,2.03-3.23c0.25-0.03,0.5-0.07,0.75-0.1c1.6-0.04,3.21,0.59,4.45,1.7
			l2.3-3.77c-1.93-1.78-4.49-2.62-7.07-2.29c-4.66,0.61-7.79,3.82-7.2,8.31c1.1,8.4,11.15,4.37,11.77,9.11
			c0.04,1.6-1.21,3.04-2.8,3.16c-2.58,0.34-3.58-0.88-4.91-1.98l-2.74,3.58c2.14,2.09,5.07,3.14,8.06,2.75
			c4.41-0.58,7.71-3.8,7.13-8.21C169.89,125.52,159.95,129.71,159.41,125.63z"/>
		<path class="st18" d="M191.99,129.55c-0.77-5.23-5.65-8.9-10.95-8.03l0,0c-5.05,0.83-8.41,5.51-7.58,10.56
			c0.01,0.08,0.01,0.08,0.02,0.17l2.01,15.3l4.41-0.58l-1.08-8.23c1.52,1.24,3.43,1.66,5.35,1.41
			C189.13,139.32,192.66,134.63,191.99,129.55z M183.71,136.06c-2.87,0.72-5.81-1.1-6.53-3.96c-0.72-2.87,1.1-5.81,3.96-6.53
			c2.87-0.72,5.81,1.1,6.53,3.96c0.02,0.17,0.05,0.42,0.08,0.58C188.11,132.86,186.42,135.45,183.71,136.06z"/>
		<path class="st18" d="M224.66,130.93c-2.58,0.34-3.31-0.75-3.53-2.41l-1-7.57l3.99-0.52l-0.49-3.74l-3.99,0.52l-0.67-5.07
			l-4.16,2.49l2.01,15.3c0.51,3.91,3.51,5.46,7.09,4.99c0.58-0.08,1.16-0.15,1.64-0.39l0.48-4.04
			C225.65,130.71,225.16,130.86,224.66,130.93z"/>
		<path class="st19" d="M207.9,119.26c-1.17-0.52-2.39-0.79-3.65-0.7l-0.6-4.57c1.26-0.67,1.93-2.03,1.66-3.43
			c-0.25-1.91-2.04-3.28-3.95-3.03l0,0c-1.83,0.24-3.12,2.02-2.87,3.93l0.01,0.08c0.1,1.42,1.1,2.56,2.49,2.89l0.6,4.57
			c-1.06,0.31-2.1,0.78-3.04,1.33c-2.12-1.33-9.25-5.38-13.53-7.7c0.04-0.34,0.08-0.69,0.04-1.02c-0.28-2.16-2.26-3.68-4.42-3.39
			s-3.68,2.26-3.39,4.42c0.28,2.16,2.26,3.68,4.42,3.39l0,0c0.67-0.09,1.31-0.34,1.85-0.75l0.84,0.57l12.1,6.45
			c-0.51,0.66-0.93,1.31-1.34,2.04c-0.74,1.45-1.03,3.1-0.81,4.76l0.05,0.42c0.15,1.16,0.47,2.31,0.95,3.34
			c0.45,0.87,1.06,1.64,1.74,2.31l-3.18,4.14c-0.34-0.04-0.69-0.08-1.02-0.04c-0.83,0.11-1.54,0.54-1.96,1.19
			c-0.51,0.66-0.74,1.45-0.64,2.2c0.11,0.83,0.54,1.54,1.19,1.96c0.66,0.51,1.45,0.74,2.2,0.64c0.83-0.11,1.54-0.54,1.96-1.19
			c0.51-0.66,0.74-1.45,0.64-2.2c-0.04-0.33-0.08-0.58-0.29-0.89l3.25-4.23c0.55,0.35,1.17,0.52,1.78,0.7
			c1.31,0.33,2.69,0.49,4.01,0.23l0.25-0.03c1.58-0.21,3.11-0.83,4.42-1.77c1.32-0.93,2.34-2.17,3.08-3.62
			c0.73-1.53,1.02-3.18,0.8-4.84l-0.03-0.25c-0.22-1.66-0.84-3.19-1.78-4.5C210.83,120.99,209.5,119.89,207.9,119.26z
			 M208.22,130.72c-0.69,1.19-1.93,2.03-3.25,2.29l-0.25,0.03c-0.75,0.1-1.52,0.03-2.31-0.2c-0.89-0.31-1.64-0.88-2.15-1.58
			c-0.59-0.6-0.95-1.4-1.05-2.23l-0.03-0.25c-0.19-0.82-0.06-1.77,0.34-2.58c0.31-0.89,0.88-1.64,1.58-2.15
			c0.68-0.6,1.55-1.05,2.48-1.09l0.17-0.02c0.83-0.11,1.6-0.04,2.39,0.19c0.79,0.23,1.53,0.73,2.05,1.42
			c0.59,0.6,0.95,1.4,1.05,2.23l0.07,0.5C209.37,128.54,209.02,129.77,208.22,130.72z"/>
	</g>
</g>
<g class="st4">
	
		<linearGradient id="SVGID_5_" gradientUnits="userSpaceOnUse" x1="767.9" y1="320.8" x2="767.9" y2="-127.2" gradientTransform="matrix(1 0 0 1 0 468)">
		<stop  offset="0" style="stop-color:#808080;stop-opacity:0.25"/>
		<stop  offset="0.54" style="stop-color:#808080;stop-opacity:0.12"/>
		<stop  offset="1" style="stop-color:#808080;stop-opacity:0.1"/>
	</linearGradient>
	<rect x="605.8" y="340.8" class="st20" width="324.2" height="448"/>
</g>
<rect x="610" y="344.1" class="st6" width="316" height="438.1"/>
<g class="st4">
	
		<linearGradient id="SVGID_6_" gradientUnits="userSpaceOnUse" x1="738" y1="304.7" x2="738" y2="-143.3" gradientTransform="matrix(1 0 0 1 0 468)">
		<stop  offset="0" style="stop-color:#808080;stop-opacity:0.25"/>
		<stop  offset="0.54" style="stop-color:#808080;stop-opacity:0.12"/>
		<stop  offset="1" style="stop-color:#808080;stop-opacity:0.1"/>
	</linearGradient>
	<rect x="575.9" y="324.7" class="st21" width="324.2" height="448"/>
</g>
<rect x="580" y="328" class="st22" width="316" height="438.1"/>
<g class="st4">
	
		<linearGradient id="SVGID_7_" gradientUnits="userSpaceOnUse" x1="709.8" y1="289.9" x2="709.8" y2="-158.1" gradientTransform="matrix(1 0 0 1 0 468)">
		<stop  offset="0" style="stop-color:#808080;stop-opacity:0.25"/>
		<stop  offset="0.54" style="stop-color:#808080;stop-opacity:0.12"/>
		<stop  offset="1" style="stop-color:#808080;stop-opacity:0.1"/>
	</linearGradient>
	<rect x="547.7" y="309.9" class="st23" width="324.2" height="448"/>
</g>
<rect x="551.9" y="313.2" class="st6" width="316" height="438.1"/>
<rect x="605.9" y="427.9" class="st13" width="79.1" height="8.3"/>
<rect x="605.9" y="456" class="st13" width="209.2" height="8"/>
<rect x="605.9" y="512.4" class="st13" width="205.1" height="8"/>
<rect x="605.9" y="540.5" class="st13" width="209.2" height="8"/>
<rect x="605.9" y="568.7" class="st13" width="209.2" height="8"/>
<rect x="605.9" y="670" class="st11" width="209.2" height="29.3"/>
<rect x="733" y="596.8" class="st13" width="82" height="8"/>
<rect x="733" y="625" class="st13" width="82" height="8"/>
<path class="st24" d="M650,371.8c0,6.7-4.7,11.8-10.9,11.8c-2.5,0.1-5-1-6.6-2.9v11.6h-6v-31.7h5.9v2.5c1.6-2,4.1-3.2,6.7-3.1
	C645.3,360,650,365,650,371.8z M632.2,371.8c0.2,3.2,3,5.6,6.2,5.4s5.6-3,5.4-6.2c-0.2-3.1-2.8-5.5-5.9-5.4c-3.1,0-5.7,2.5-5.7,5.6
	C632.2,371.4,632.2,371.6,632.2,371.8z"/>
<path class="st24" d="M675.1,383h-5.9v-2.5c-1.6,2-4.1,3.2-6.7,3.1c-6.2,0-10.9-5.1-10.9-11.8c0-6.7,4.7-11.8,10.9-11.8
	c2.6-0.1,5.1,1,6.7,3.1v-2.5h5.9V383z M657.8,371.8c0.1,3.2,2.8,5.7,6,5.6s5.7-2.8,5.6-6c-0.1-3.2-2.8-5.7-6-5.6
	c-3,0.1-5.5,2.5-5.6,5.6C657.8,371.5,657.8,371.6,657.8,371.8z"/>
<path class="st24" d="M685.2,392.4h-6.6l7.9-14.1l-9.7-17.7h6.9l6.2,11.5l6-11.5h6.6L685.2,392.4z"/>
<path class="st24" d="M721.6,364.2l-4.3,3.6c-2.3-2.4-6.1-2.6-8.5-0.3c-2.4,2.3-2.6,6.1-0.3,8.5c1,1.1,2.5,1.8,4,1.9
	c1.9,0,3.7-0.8,4.9-2.3l4.3,3.6c-2.2,2.8-5.5,4.3-9,4.2c-6.5,0-11.8-5.3-11.8-11.8s5.3-11.8,11.8-11.8l0,0l0,0
	C716.1,359.8,719.5,361.4,721.6,364.2z"/>
<path class="st24" d="M746.6,371.8c0.2,6.7-5.1,12.3-11.8,12.5s-12.3-5.1-12.5-11.8c-0.2-6.7,5.1-12.3,11.8-12.5h0.3
	c6.4-0.3,11.9,4.7,12.2,11.2C746.6,371.4,746.6,371.6,746.6,371.8z M728.5,371.8c0.1,3.3,2.9,5.9,6.2,5.8s5.9-2.9,5.8-6.2
	c-0.1-3.2-2.8-5.8-6-5.8s-5.9,2.6-6,5.8l0,0C728.5,371.5,728.5,371.7,728.5,371.8z"/>
<path class="st24" d="M762.1,383h-7l-8.9-22.5h6.6l5.8,16.1l5.9-16.1h6.4L762.1,383z"/>
<path class="st24" d="M792.9,371.8c0,0.7,0,1.4-0.1,2h-15.9c0.4,2.8,2.9,4.8,5.7,4.7c2.1,0,4.1-0.8,5.7-2.2l3.6,3.9
	c-2.6,2.3-6.1,3.5-9.6,3.4c-6.1,0.3-11.3-4.5-11.6-10.6c0-0.4,0-0.8,0-1.2c0-7.1,4.6-11.9,11.3-11.9S792.9,364.8,792.9,371.8z
	 M776.9,369.7h9.9c-0.2-2.7-2.7-4.8-5.4-4.5C779,365.4,777.1,367.3,776.9,369.7L776.9,369.7z"/>
<text transform="matrix(1 0 0 1 686.806 692.3698)" class="st6 st25 st26">PAY</text>
<g>
	<path class="st27" d="M847.87,147.47c0-7.1-3.44-12.7-10.01-12.7c-6.6,0-10.59,5.6-10.59,12.65c0,8.35,4.71,12.56,11.48,12.56
		c3.3,0,5.8-0.75,7.68-1.8v-5.55c-1.89,0.94-4.05,1.53-6.79,1.53c-2.69,0-5.08-0.94-5.38-4.22h13.56
		C847.82,149.57,847.87,148.13,847.87,147.47z M834.17,144.83c0-3.13,1.91-4.44,3.66-4.44c1.69,0,3.49,1.3,3.49,4.44H834.17z"/>
	<path class="st27" d="M816.56,134.76c-2.72,0-4.47,1.28-5.44,2.16l-0.36-1.72h-6.1v32.34l6.93-1.47l0.03-7.85
		c1,0.72,2.47,1.75,4.91,1.75c4.96,0,9.49-3.99,9.49-12.79C825.99,139.15,821.42,134.76,816.56,134.76z M814.9,153.87
		c-1.64,0-2.61-0.58-3.27-1.3l-0.03-10.29c0.72-0.8,1.72-1.36,3.3-1.36c2.52,0,4.27,2.83,4.27,6.46
		C819.17,151.1,817.45,153.87,814.9,153.87z"/>
	<polygon class="st27" points="795.12,133.13 802.08,131.63 802.08,126 795.12,127.47 	"/>
	<rect x="795.12" y="135.24" class="st27" width="6.96" height="24.27"/>
	<path class="st27" d="M787.66,137.29l-0.44-2.05h-5.99v24.27h6.93v-16.45c1.64-2.14,4.41-1.75,5.27-1.44v-6.38
		C792.54,134.9,789.3,134.29,787.66,137.29z"/>
	<path class="st27" d="M773.8,129.22l-6.77,1.44L767,152.87c0,4.1,3.08,7.13,7.18,7.13c2.27,0,3.94-0.42,4.85-0.92v-5.63
		c-0.89,0.36-5.27,1.64-5.27-2.47v-9.85h5.27v-5.91h-5.27L773.8,129.22z"/>
	<path class="st27" d="M755.05,142.28c0-1.08,0.89-1.5,2.36-1.5c2.11,0,4.77,0.64,6.88,1.77v-6.52c-2.3-0.92-4.58-1.28-6.88-1.28
		c-5.63,0-9.37,2.94-9.37,7.85c0,7.65,10.54,6.43,10.54,9.73c0,1.28-1.11,1.69-2.66,1.69c-2.3,0-5.24-0.94-7.57-2.22v6.6
		c2.58,1.11,5.19,1.58,7.57,1.58c5.77,0,9.73-2.86,9.73-7.82C765.61,143.92,755.05,145.39,755.05,142.28z"/>
</g>
<g>
	<path class="st28" d="M315,742.61l11.8-18.36h-10.4c-0.09-0.52-0.13-1.11-0.13-1.75c0-0.61,0.04-1.18,0.13-1.71h16.83l0.22,0.57
		l-11.89,18.4h11.15c0.09,0.58,0.13,1.18,0.13,1.79c0,0.58-0.04,1.14-0.13,1.66h-17.48L315,742.61L315,742.61z"/>
	<path class="st28" d="M349.05,732.69c-0.44-0.06-0.99-0.12-1.66-0.17c-0.67-0.06-1.24-0.09-1.7-0.09c-1.81,0-3.18,0.34-4.13,1.01
		c-0.95,0.67-1.42,1.69-1.42,3.06c0,0.87,0.16,1.56,0.48,2.05c0.32,0.5,0.72,0.87,1.2,1.14c0.48,0.26,1.01,0.42,1.6,0.48
		c0.58,0.06,1.14,0.09,1.66,0.09c0.67,0,1.36-0.04,2.08-0.11c0.71-0.07,1.35-0.18,1.9-0.33V732.69L349.05,732.69z M349.05,728.45
		c0-1.72-0.44-2.91-1.31-3.58c-0.87-0.67-2.14-1.01-3.8-1.01c-1.02,0-1.97,0.08-2.86,0.24c-0.89,0.16-1.76,0.37-2.6,0.63
		c-0.55-0.96-0.83-2.11-0.83-3.45c0.99-0.32,2.08-0.57,3.28-0.74c1.19-0.18,2.35-0.26,3.45-0.26c2.91,0,5.13,0.66,6.64,1.99
		c1.51,1.33,2.27,3.45,2.27,6.36v14.03c-1.02,0.23-2.26,0.47-3.72,0.72c-1.46,0.25-2.94,0.37-4.46,0.37c-1.43,0-2.72-0.13-3.87-0.39
		c-1.15-0.26-2.13-0.68-2.93-1.27c-0.8-0.58-1.42-1.33-1.86-2.23c-0.44-0.9-0.66-2-0.66-3.28c0-1.25,0.25-2.35,0.76-3.3
		c0.51-0.95,1.2-1.73,2.08-2.36c0.87-0.63,1.88-1.09,3.02-1.4c1.14-0.31,2.33-0.46,3.58-0.46c0.93,0,1.7,0.02,2.29,0.07
		c0.6,0.04,1.1,0.09,1.51,0.15V728.45L349.05,728.45z"/>
	<path class="st28" d="M362.34,739.55c0.55,0.2,1.12,0.35,1.7,0.44c0.58,0.09,1.34,0.13,2.27,0.13c1.05,0,2.01-0.17,2.88-0.5
		c0.87-0.33,1.62-0.85,2.25-1.55c0.63-0.7,1.12-1.58,1.49-2.64c0.36-1.06,0.55-2.32,0.55-3.78c0-2.33-0.43-4.18-1.29-5.55
		c-0.86-1.37-2.27-2.05-4.22-2.05c-0.73,0-1.43,0.13-2.1,0.39c-0.67,0.26-1.27,0.66-1.79,1.18c-0.52,0.52-0.95,1.19-1.27,1.99
		c-0.32,0.8-0.48,1.76-0.48,2.86V739.55L362.34,739.55z M358.01,720.8c0.29-0.06,0.59-0.1,0.9-0.13c0.31-0.03,0.62-0.04,0.94-0.04
		c0.29,0,0.6,0.02,0.92,0.04c0.32,0.03,0.63,0.07,0.92,0.13c0.03,0.06,0.07,0.24,0.11,0.55c0.04,0.31,0.09,0.63,0.13,0.98
		c0.04,0.35,0.09,0.69,0.13,1.01c0.04,0.32,0.07,0.53,0.07,0.61c0.29-0.47,0.64-0.92,1.05-1.36c0.41-0.44,0.9-0.83,1.46-1.18
		c0.57-0.35,1.21-0.63,1.92-0.83c0.71-0.2,1.51-0.31,2.38-0.31c1.31,0,2.53,0.22,3.65,0.66c1.12,0.44,2.08,1.11,2.88,2.03
		c0.8,0.92,1.43,2.08,1.88,3.5c0.45,1.41,0.68,3.08,0.68,5.01c0,3.85-1.04,6.86-3.13,9.03c-2.08,2.17-5.03,3.26-8.85,3.26
		c-0.64,0-1.3-0.04-1.97-0.13c-0.67-0.09-1.25-0.2-1.75-0.35v10.27c-0.35,0.06-0.72,0.1-1.11,0.13c-0.39,0.03-0.75,0.04-1.07,0.04
		c-0.32,0-0.68-0.01-1.07-0.04c-0.39-0.03-0.75-0.07-1.07-0.13V720.8L358.01,720.8z"/>
	<path class="st28" d="M383.41,724.21h-2.84c-0.06-0.23-0.1-0.5-0.13-0.81c-0.03-0.31-0.04-0.6-0.04-0.9c0-0.29,0.01-0.59,0.04-0.9
		c0.03-0.31,0.07-0.57,0.13-0.81h7.08v22.42c-0.32,0.06-0.68,0.1-1.07,0.13c-0.39,0.03-0.75,0.04-1.07,0.04
		c-0.29,0-0.63-0.01-1.03-0.04c-0.39-0.03-0.75-0.07-1.07-0.13V724.21L383.41,724.21z"/>
	<path class="st28" d="M408.06,729.85c0-0.82-0.11-1.6-0.33-2.34c-0.22-0.74-0.54-1.39-0.96-1.95c-0.42-0.55-0.96-1-1.62-1.33
		c-0.66-0.34-1.44-0.5-2.34-0.5c-1.78,0-3.14,0.54-4.09,1.62c-0.95,1.08-1.52,2.58-1.73,4.5H408.06L408.06,729.85z M396.96,733.08
		c0.06,2.45,0.69,4.24,1.9,5.38c1.21,1.14,2.99,1.71,5.35,1.71c2.07,0,4.04-0.36,5.9-1.09c0.23,0.44,0.42,0.97,0.57,1.6
		c0.15,0.63,0.23,1.25,0.26,1.86c-0.96,0.41-2.02,0.71-3.17,0.92c-1.15,0.2-2.43,0.31-3.82,0.31c-2.04,0-3.79-0.28-5.25-0.85
		c-1.46-0.57-2.66-1.37-3.61-2.4c-0.95-1.03-1.64-2.26-2.08-3.67c-0.44-1.41-0.66-2.97-0.66-4.66c0-1.66,0.21-3.21,0.63-4.66
		c0.42-1.44,1.07-2.7,1.95-3.76c0.87-1.06,1.97-1.91,3.3-2.54c1.33-0.63,2.89-0.94,4.7-0.94c1.54,0,2.9,0.26,4.07,0.79
		c1.17,0.52,2.14,1.25,2.93,2.16c0.79,0.92,1.38,2.01,1.79,3.28c0.41,1.27,0.61,2.64,0.61,4.13c0,0.41-0.02,0.84-0.04,1.29
		c-0.03,0.45-0.06,0.84-0.09,1.16H396.96L396.96,733.08z"/>
	<path class="st28" d="M417.11,720.8c0.32-0.06,0.63-0.1,0.92-0.13c0.29-0.03,0.6-0.04,0.92-0.04c0.32,0,0.64,0.02,0.96,0.04
		c0.32,0.03,0.61,0.07,0.87,0.13c0.09,0.44,0.17,1.01,0.26,1.73c0.09,0.71,0.13,1.32,0.13,1.81c0.61-0.99,1.42-1.85,2.43-2.58
		c1.01-0.73,2.29-1.09,3.87-1.09c0.23,0,0.47,0.01,0.72,0.02c0.25,0.01,0.46,0.04,0.63,0.07c0.06,0.26,0.1,0.54,0.13,0.83
		c0.03,0.29,0.04,0.6,0.04,0.92c0,0.35-0.02,0.71-0.07,1.09c-0.04,0.38-0.1,0.74-0.15,1.09c-0.23-0.06-0.47-0.09-0.72-0.09
		c-0.25,0-0.44,0-0.59,0c-0.79,0-1.54,0.11-2.25,0.33c-0.71,0.22-1.36,0.61-1.92,1.16c-0.57,0.55-1.02,1.31-1.35,2.27
		c-0.34,0.96-0.5,2.2-0.5,3.72v11.15c-0.32,0.06-0.68,0.1-1.07,0.13c-0.39,0.03-0.75,0.04-1.07,0.04c-0.32,0-0.68-0.01-1.07-0.04
		c-0.39-0.03-0.76-0.07-1.11-0.13V720.8L417.11,720.8z"/>
	<path class="st28" d="M386.43,708.83c0,0.54-0.1,1.06-0.28,1.53c-0.48,0.18-0.99,0.28-1.53,0.28h-0.01c-0.54,0-1.06-0.1-1.53-0.28
		c-0.18-0.48-0.28-0.99-0.28-1.53v-0.01c0-0.54,0.1-1.06,0.28-1.53c0.48-0.18,0.99-0.28,1.53-0.28h0.01c0.54,0,1.06,0.1,1.53,0.28
		C386.33,707.76,386.43,708.28,386.43,708.83L386.43,708.83L386.43,708.83z M391.77,707.61h-4.24l2.99-2.99
		c-0.24-0.33-0.5-0.64-0.78-0.93v0c-0.29-0.29-0.6-0.55-0.93-0.78l-2.99,2.99v-4.24c-0.39-0.07-0.79-0.1-1.21-0.1h-0.01
		c-0.41,0-0.81,0.04-1.21,0.1v4.24l-3-2.99c-0.33,0.24-0.64,0.5-0.93,0.78l0,0c-0.29,0.29-0.55,0.6-0.78,0.93l3,2.99h-4.24
		c0,0-0.1,0.8-0.1,1.21v0.01c0,0.41,0.03,0.81,0.1,1.21h4.24l-3,2.99c0.47,0.66,1.05,1.24,1.71,1.71l3-3v4.24
		c0.39,0.07,0.79,0.1,1.2,0.1h0.01c0.41,0,0.81-0.04,1.2-0.1v-4.24l3,3c0.33-0.24,0.64-0.5,0.93-0.78l0,0
		c0.29-0.29,0.55-0.6,0.78-0.93l-3-2.99h4.24c0.07-0.39,0.1-0.79,0.1-1.2v-0.01C391.87,708.41,391.84,708,391.77,707.61
		L391.77,707.61z"/>
</g>
<path class="st29" d="M141.57,637c24.53,0,44.41-19.88,44.41-44.41c0-24.53-19.88-44.41-44.41-44.41s-44.41,19.88-44.41,44.41
	C97.16,617.12,117.05,637,141.57,637"/>
<path class="st6" d="M118.42,592.46l7.58-7.6c0.25-0.26,0.39-0.6,0.39-0.96c0-0.75-0.61-1.36-1.36-1.36c-0.37,0-0.71,0.14-0.97,0.4
	l-7.57,7.57l-7.6-7.58c-0.26-0.25-0.6-0.39-0.96-0.39c-0.75,0-1.36,0.61-1.36,1.36c0,0.37,0.14,0.71,0.41,0.97l7.58,7.58l-7.57,7.59
	c-0.27,0.26-0.41,0.61-0.41,0.97c0,0.75,0.61,1.36,1.36,1.36c0.36,0,0.7-0.14,0.96-0.4l7.59-7.58l7.56,7.55
	c0.27,0.28,0.61,0.43,0.99,0.43c0.75,0,1.36-0.61,1.36-1.36c0-0.36-0.14-0.7-0.4-0.96L118.42,592.46z"/>
<path class="st6" d="M163.47,592.46c0,1.36,1.11,2.47,2.47,2.47c1.36,0,2.46-1.11,2.46-2.47c0-1.36-1.1-2.47-2.46-2.47
	C164.58,589.99,163.47,591.1,163.47,592.46"/>
<path class="st6" d="M158.79,592.46c0-3.94,3.21-7.15,7.15-7.15c3.94,0,7.14,3.21,7.14,7.15c0,3.94-3.21,7.15-7.14,7.15
	C162,599.61,158.79,596.4,158.79,592.46 M155.98,592.46c0,5.49,4.47,9.95,9.96,9.95c5.49,0,9.96-4.46,9.96-9.95
	c0-5.49-4.47-9.96-9.96-9.96C160.45,582.5,155.98,586.97,155.98,592.46"/>
<path class="st6" d="M155.28,582.67h-0.42c-1.25,0-2.46,0.4-3.47,1.17c-0.13-0.61-0.68-1.07-1.32-1.07c-0.75,0-1.35,0.6-1.35,1.34
	c0,0,0.01,16.77,0.01,16.77c0,0.75,0.61,1.35,1.36,1.35c0.75,0,1.36-0.61,1.36-1.36c0,0,0-10.31,0-10.31c0-3.44,0.31-4.83,3.26-5.19
	c0.27-0.03,0.57-0.03,0.57-0.03c0.81-0.03,1.38-0.58,1.38-1.33C156.64,583.28,156.03,582.67,155.28,582.67"/>
<path class="st6" d="M129.2,590.82c0-0.03,0-0.08,0-0.11c0.79-3.11,3.61-5.42,6.97-5.42c3.4,0,6.25,2.36,7,5.54H129.2z
	 M145.96,590.57c-0.59-2.77-2.1-5.05-4.41-6.51c-3.38-2.14-7.83-2.03-11.09,0.29c-2.66,1.89-4.2,4.99-4.2,8.18
	c0,0.8,0.1,1.61,0.3,2.4c1,3.95,4.4,6.94,8.45,7.44c1.2,0.15,2.37,0.08,3.59-0.24c1.04-0.25,2.05-0.67,2.97-1.27
	c0.96-0.62,1.77-1.44,2.55-2.41c0.02-0.02,0.03-0.03,0.05-0.05c0.54-0.67,0.44-1.62-0.15-2.08c-0.5-0.38-1.35-0.54-2,0.31
	c-0.14,0.2-0.3,0.41-0.48,0.62c-0.53,0.58-1.18,1.15-1.96,1.58c-0.99,0.53-2.13,0.84-3.34,0.84c-3.95-0.04-6.06-2.8-6.82-4.77
	c-0.13-0.37-0.23-0.75-0.3-1.14c-0.01-0.07-0.02-0.15-0.02-0.21c0.82,0,14.17,0,14.17,0C145.2,593.51,146.25,592.13,145.96,590.57"
	/>
</svg>
