<?xml version="1.0" encoding="UTF-8" standalone="no"?> <svg width="64" height="64" viewBox="0 0 64 64" fill="none" xmlns="http://www.w3.org/2000/svg">
<path d="M5 53H51C51.2652 53 51.5196 52.8946 51.7071 52.7071C51.8946 52.5196 52 52.2652 52 52V51H7C6.73478 51 6.48043 50.8946 6.29289 50.7071C6.10536 50.5196 6 50.2652 6 50V19H5C4.73478 19 4.48043 19.1054 4.29289 19.2929C4.10536 19.4804 4 19.7348 4 20V52C4 52.2652 4.10536 52.5196 4.29289 52.7071C4.48043 52.8946 4.73478 53 5 53Z" fill="black"/>
<path d="M56 48V47H11C10.7348 47 10.4804 46.8946 10.2929 46.7071C10.1054 46.5196 10 46.2652 10 46V15H9C8.73478 15 8.48043 15.1054 8.29289 15.2929C8.10536 15.4804 8 15.7348 8 16V48C8 48.2652 8.10536 48.5196 8.29289 48.7071C8.48043 48.8946 8.73478 49 9 49H55C55.2652 49 55.5196 48.8946 55.7071 48.7071C55.8946 48.5196 56 48.2652 56 48Z" fill="black"/>
<path d="M12 12.45L34.38 26.78C34.864 27.0886 35.426 27.2526 36 27.2526C36.574 27.2526 37.136 27.0886 37.62 26.78L60 12.45V12C60 11.7348 59.8946 11.4804 59.7071 11.2929C59.5196 11.1054 59.2652 11 59 11H13C12.7348 11 12.4804 11.1054 12.2929 11.2929C12.1054 11.4804 12 11.7348 12 12V12.45Z" fill="black"/>
<path d="M60 44V14.83L38.7 28.46C37.8939 28.9758 36.957 29.2499 36 29.2499C35.043 29.2499 34.1061 28.9758 33.3 28.46L12 14.83V44C12 44.2652 12.1054 44.5195 12.2929 44.7071C12.4804 44.8946 12.7348 45 13 45H59C59.2652 45 59.5196 44.8946 59.7071 44.7071C59.8946 44.5195 60 44.2652 60 44Z" fill="black"/>
</svg>
