<?xml version="1.0" encoding="UTF-8" standalone="no"?> <svg width="64" height="64" viewBox="0 0 64 64" fill="none" xmlns="http://www.w3.org/2000/svg">
<path d="M60 26.13H55.64C55.0608 23.771 54.1232 21.5148 52.86 19.44L56 16.35C56.186 16.1643 56.3335 15.9437 56.4341 15.7009C56.5348 15.4581 56.5866 15.1978 56.5866 14.935C56.5866 14.6722 56.5348 14.4119 56.4341 14.1691C56.3335 13.9263 56.186 13.7057 56 13.52L50.48 8.05C50.0975 7.68852 49.5912 7.48712 49.065 7.48712C48.5387 7.48712 48.0325 7.68852 47.65 8.05L44.56 11.14C42.4852 9.87681 40.229 8.93925 37.87 8.36V4C37.87 3.46957 37.6593 2.96086 37.2842 2.58579C36.9091 2.21071 36.4004 2 35.87 2H28.13C27.5996 2 27.0909 2.21071 26.7158 2.58579C26.3407 2.96086 26.13 3.46957 26.13 4V8.36C23.771 8.93925 21.5148 9.87681 19.44 11.14L16.35 8.05C16.1643 7.86405 15.9437 7.71653 15.7009 7.61588C15.4581 7.51523 15.1978 7.46343 14.935 7.46343C14.6722 7.46343 14.4119 7.51523 14.1691 7.61588C13.9263 7.71653 13.7057 7.86405 13.52 8.05L8.05 13.52C7.86405 13.7057 7.71653 13.9263 7.61588 14.1691C7.51523 14.4119 7.46343 14.6722 7.46343 14.935C7.46343 15.1978 7.51523 15.4581 7.61588 15.7009C7.71653 15.9437 7.86405 16.1643 8.05 16.35L11.14 19.44C9.87681 21.5148 8.93925 23.771 8.36 26.13H4C3.46957 26.13 2.96086 26.3407 2.58579 26.7158C2.21071 27.0909 2 27.5996 2 28.13V35.87C2 36.4004 2.21071 36.9091 2.58579 37.2842C2.96086 37.6593 3.46957 37.87 4 37.87H8.36C8.93925 40.229 9.87681 42.4852 11.14 44.56L8.05 47.65C7.86405 47.8357 7.71653 48.0563 7.61588 48.2991C7.51523 48.5419 7.46343 48.8022 7.46343 49.065C7.46343 49.3278 7.51523 49.5881 7.61588 49.8309C7.71653 50.0737 7.86405 50.2943 8.05 50.48L13.52 56C13.7057 56.186 13.9263 56.3335 14.1691 56.4341C14.4119 56.5348 14.6722 56.5866 14.935 56.5866C15.1978 56.5866 15.4581 56.5348 15.7009 56.4341C15.9437 56.3335 16.1643 56.186 16.35 56L19.44 52.91C21.5148 54.1732 23.771 55.1108 26.13 55.69V60C26.13 60.5304 26.3407 61.0391 26.7158 61.4142C27.0909 61.7893 27.5996 62 28.13 62H35.87C36.4004 62 36.9091 61.7893 37.2842 61.4142C37.6593 61.0391 37.87 60.5304 37.87 60V55.64C40.229 55.0608 42.4852 54.1232 44.56 52.86L47.65 56C47.8357 56.186 48.0563 56.3335 48.2991 56.4341C48.5419 56.5348 48.8022 56.5866 49.065 56.5866C49.3278 56.5866 49.5881 56.5348 49.8309 56.4341C50.0737 56.3335 50.2943 56.186 50.48 56L56 50.48C56.186 50.2943 56.3335 50.0737 56.4341 49.8309C56.5348 49.5881 56.5866 49.3278 56.5866 49.065C56.5866 48.8022 56.5348 48.5419 56.4341 48.2991C56.3335 48.0563 56.186 47.8357 56 47.65L52.91 44.56C54.1732 42.4852 55.1108 40.229 55.69 37.87H60C60.5304 37.87 61.0391 37.6593 61.4142 37.2842C61.7893 36.9091 62 36.4004 62 35.87V28.13C62 27.5996 61.7893 27.0909 61.4142 26.7158C61.0391 26.3407 60.5304 26.13 60 26.13ZM32 42.83C29.1285 42.8274 26.3754 41.6855 24.345 39.655C22.3145 37.6246 21.1726 34.8715 21.17 32C21.76 17.63 42.24 17.63 42.83 32C42.8274 34.8715 41.6855 37.6246 39.655 39.655C37.6246 41.6855 34.8715 42.8274 32 42.83V42.83Z" fill="black"/>
</svg>
