<?xml version="1.0" encoding="UTF-8" standalone="no"?>
<svg
   height="32"
   viewBox="0 0 32 32"
   width="32"
   version="1.1"
   id="svg32"
   sodipodi:docname="ada.svg"
   inkscape:version="1.2.2 (732a01da63, 2022-12-09)"
   xmlns:inkscape="http://www.inkscape.org/namespaces/inkscape"
   xmlns:sodipodi="http://sodipodi.sourceforge.net/DTD/sodipodi-0.dtd"
   xmlns="http://www.w3.org/2000/svg"
   xmlns:svg="http://www.w3.org/2000/svg">
  <sodipodi:namedview
     id="namedview34"
     pagecolor="#ffffff"
     bordercolor="#000000"
     borderopacity="0.25"
     inkscape:showpageshadow="2"
     inkscape:pageopacity="0.0"
     inkscape:pagecheckerboard="0"
     inkscape:deskcolor="#d1d1d1"
     showgrid="false"
     inkscape:zoom="4.0117188"
     inkscape:cx="127.87537"
     inkscape:cy="127.87537"
     inkscape:window-width="2560"
     inkscape:window-height="1369"
     inkscape:window-x="-8"
     inkscape:window-y="-8"
     inkscape:window-maximized="1"
     inkscape:current-layer="svg32" />
  <defs
     id="defs26">
    <style
       id="style24">
      .cls-1 {
        fill: #3468d1;
      }

      .cls-2 {
        fill: #fff;
        fill-rule: evenodd;
      }
    </style>
  </defs>
  <g
     data-name="cardano ada"
     id="cardano_ada"
     transform="scale(0.125)">
    <g
       data-name="cardano ada"
       id="cardano_ada-2">
      <circle
         class="cls-1"
         cx="128"
         cy="128"
         data-name="Эллипс 6"
         id="Эллипс_6"
         r="128" />
      <path
         class="cls-2"
         d="m 265.727,717.735 a 12.652,12.652 0 1 1 -12.654,12.652 12.654,12.654 0 0 1 12.654,-12.652 z m 30.546,0 a 12.652,12.652 0 1 1 -12.655,12.652 12.654,12.654 0 0 1 12.655,-12.652 z m 0,53.226 a 12.652,12.652 0 1 1 -12.655,12.652 12.653,12.653 0 0 1 12.655,-12.652 z m -30.546,0 a 12.652,12.652 0 1 1 -12.654,12.652 12.653,12.653 0 0 1 12.654,-12.652 z m -15.709,-26.177 a 12.652,12.652 0 1 1 -12.654,12.652 12.654,12.654 0 0 1 12.654,-12.652 z m 61.964,0 a 12.652,12.652 0 1 1 -12.655,12.652 12.653,12.653 0 0 1 12.655,-12.652 z m 14.4,-21.813 a 7.853,7.853 0 1 1 -7.855,7.853 7.853,7.853 0 0 1 7.855,-7.853 z m 0,52.352 a 7.853,7.853 0 1 1 -7.855,7.853 7.853,7.853 0 0 1 7.855,-7.853 z m -90.764,0 a 7.853,7.853 0 1 1 -7.854,7.853 7.854,7.854 0 0 1 7.854,-7.853 z m 0,-52.352 a 7.853,7.853 0 1 1 -7.854,7.853 7.854,7.854 0 0 1 7.854,-7.853 z M 281,696.794 a 7.853,7.853 0 1 1 -7.855,7.853 7.853,7.853 0 0 1 7.855,-7.853 z m 0,104.706 a 7.853,7.853 0 1 1 -7.855,7.853 A 7.853,7.853 0 0 1 281,801.5 Z m 33.6,7.853 a 6.544,6.544 0 1 1 -6.546,6.544 6.544,6.544 0 0 1 6.546,-6.544 z m -67.2,0 a 6.544,6.544 0 1 1 -6.546,6.544 6.544,6.544 0 0 1 6.546,-6.544 z m 0,-117.794 a 6.544,6.544 0 1 1 -6.546,6.544 6.544,6.544 0 0 1 6.546,-6.544 z m 67.2,0 a 6.544,6.544 0 1 1 -6.546,6.544 6.544,6.544 0 0 1 6.546,-6.544 z m 34.036,58.461 a 6.544,6.544 0 1 1 -6.545,6.544 6.545,6.545 0 0 1 6.545,-6.544 z m -135.273,0 a 6.544,6.544 0 1 1 -6.545,6.544 6.544,6.544 0 0 1 6.545,-6.544 z m -4.8,-40.138 a 5.236,5.236 0 1 1 -5.236,5.235 5.236,5.236 0 0 1 5.236,-5.235 z m 0,83.765 a 5.236,5.236 0 1 1 -5.236,5.235 5.236,5.236 0 0 1 5.236,-5.235 z m 144.873,0 a 5.236,5.236 0 1 1 -5.236,5.235 5.236,5.236 0 0 1 5.236,-5.235 z m 0,-83.765 a 5.236,5.236 0 1 1 -5.236,5.235 5.236,5.236 0 0 1 5.236,-5.235 z M 281,668 a 5.236,5.236 0 1 1 -5.237,5.235 A 5.235,5.235 0 0 1 281,668 Z m 0,167.529 a 5.236,5.236 0 1 1 -5.237,5.236 5.236,5.236 0 0 1 5.237,-5.236 z m 46.254,-3.49 a 4.363,4.363 0 1 1 -4.363,4.363 4.363,4.363 0 0 1 4.363,-4.363 z m -92.509,0 a 4.363,4.363 0 1 1 -4.363,4.363 4.363,4.363 0 0 1 4.363,-4.363 z m 0,-158.8 a 4.363,4.363 0 1 1 -4.363,4.363 4.363,4.363 0 0 1 4.363,-4.367 z m 92.509,0 a 4.363,4.363 0 1 1 -4.363,4.363 4.363,4.363 0 0 1 4.363,-4.367 z m 45.382,79.4 a 4.363,4.363 0 1 1 -4.363,4.361 4.363,4.363 0 0 1 4.363,-4.363 z m -183.273,0 A 4.363,4.363 0 1 1 185,757 a 4.363,4.363 0 0 1 4.363,-4.363 z"
         data-name="Эллипс 6 копия 29"
         id="Эллипс_6_копия_29"
         transform="translate(-152,-629)" />
    </g>
  </g>
</svg>
