<svg xmlns="http://www.w3.org/2000/svg" width="32" height="32" viewBox="0 0 362 362">
    <g xmlns="http://www.w3.org/2000/svg" fill="none">
        <circle xmlns="http://www.w3.org/2000/svg" fill="#E6007A" cx="181" cy="181" r="181"/>
        <path d="M181 52.1095C206.684 52.1095 227.471 64.2212 227.471 79.1675C227.471 94.1138 206.641 106.225 181 106.225C155.316 106.225 134.529 94.1138 134.529 79.1675C134.529 64.2212 155.359 52.1095 181 52.1095Z" fill="white"/>
        <path d="M181 255.817C206.684 255.817 227.471 267.929 227.471 282.875C227.471 297.822 206.641 309.933 181 309.933C155.316 309.933 134.529 297.822 134.529 282.875C134.529 267.929 155.359 255.817 181 255.817Z" fill="white"/>
        <path d="M69.3751 116.533C82.2169 94.2856 103.09 82.3457 116.061 89.8189C128.989 97.2921 129.074 121.387 116.233 143.591C103.391 165.839 82.5175 177.779 69.5469 170.306C56.6192 162.833 56.5333 138.738 69.3751 116.533Z" fill="white"/>
        <path d="M245.81 218.409C258.652 196.161 279.525 184.221 292.453 191.651C305.381 199.125 305.467 223.176 292.625 245.424C279.783 267.671 258.91 279.611 245.982 272.181C233.054 264.708 232.968 240.656 245.81 218.409Z" fill="white"/>
        <path d="M69.5469 191.651C82.4746 184.178 103.391 196.161 116.233 218.366C129.074 240.613 128.989 264.665 116.061 272.138C103.133 279.611 82.2169 267.628 69.3751 245.424C56.5333 223.176 56.6192 199.125 69.5469 191.651Z" fill="white"/>
        <path d="M245.982 89.8189C258.91 82.3457 279.783 94.3286 292.625 116.576C305.467 138.824 305.381 162.875 292.453 170.349C279.525 177.822 258.652 165.839 245.81 143.591C232.968 121.344 233.054 97.2921 245.982 89.8189Z" fill="white"/>
    </g>
</svg>
