<svg width="150" height="150" viewBox="0 0 150 150" fill="none" xmlns="http://www.w3.org/2000/svg">
<g clip-path="url(#clip0_7_13766)">
<path d="M51.7425 134.959C51.7425 134.959 55.8165 133.062 60.2121 131.825C71.0154 128.773 86.1897 119.042 86.1897 119.042L64.5746 66.9797L46.3408 72.9917L2.19541 117.269L-22.1328 135L51.7425 134.959Z" fill="#99644C"/>
<path d="M48.114 106.012C48.114 106.012 48.8809 117.121 45.4915 122.02C45.4915 122.02 62.1831 129.409 74.6936 122.02C87.2123 114.63 89.0266 113.228 89.0266 113.228L60.575 95.0853L48.114 106.012Z" fill="#5C3C2E"/>
<path d="M-4.9876 117.657C-4.9876 117.657 0.191425 135.297 16.7099 134.876H-2.92589L-4.99585 117.657H-4.9876Z" fill="#020204"/>
<path d="M121.635 63.7469C121.635 63.7469 127.16 61.1409 128.455 64.5633C129.75 67.9858 124.703 71.5072 124.703 71.5072L121.635 63.7387V63.7469Z" fill="#D2BBB0"/>
<path d="M122.063 46.8162C122.063 46.8162 128.397 44.2432 129.692 47.6574C130.987 51.0716 125.123 54.5518 125.123 54.5518L122.063 46.8162Z" fill="#D2BBB0"/>
<path d="M106.197 69.3055C106.197 69.3055 121.28 61.0751 124.595 63.4667C127.91 65.8583 127.844 69.9735 123.061 73.0661C121.692 73.9567 98.7991 88.0259 98.7991 88.0259L106.188 69.2973L106.197 69.3055Z" fill="#99644C"/>
<path d="M117.437 47.6988C117.437 47.6988 123.193 45.3072 126.509 47.6988C129.832 50.0904 126.195 54.1643 124.958 55.2199C123.721 56.2838 108.135 65.3141 108.135 65.3141L117.429 47.6988H117.437Z" fill="#99644C"/>
<path d="M85.6619 118.803C85.6619 118.803 94.3953 118.226 97.628 115.249L89.9585 108.692L85.6619 118.803Z" fill="#99644C"/>
<path d="M92.7295 104.429C92.7295 104.429 102.881 104.651 106.782 100.297L100.176 92.8749L92.7295 104.429Z" fill="#99644C"/>
<path d="M95.8799 103.142C95.8799 103.142 100.218 102.977 101.735 100.982C103.253 98.9941 96.985 99.8188 96.985 99.8188L95.8799 103.142Z" fill="#5C3C2E"/>
<path d="M88.4822 118.053C88.4822 118.053 92.0448 117.137 93.6117 115.735C95.1786 114.333 89.645 114.341 89.645 114.341L88.4904 118.053H88.4822Z" fill="#5C3C2E"/>
<path d="M123.004 46.6432C123.004 46.6432 120.859 54.2633 121.602 57.3806L116.843 60.2423L122.995 46.6432H123.004Z" fill="#5C3C2E"/>
<path d="M115.021 65.1324C115.021 65.1324 110.972 75.7214 110.823 80.6365L104.052 84.8012L113.33 65.8417L115.021 65.1324Z" fill="#5C3C2E"/>
<path d="M132.702 28.9536C132.636 29.2092 132.537 29.4566 132.413 29.6958L87.3029 120.403C86.8658 121.285 86.1649 121.962 85.3319 122.366C84.3423 122.844 83.1713 122.943 82.0662 122.564L44.1966 109.468C41.7226 108.61 40.2629 105.344 41.4669 103.027L87.1875 17.2678C87.2205 17.2101 87.2535 17.1441 87.2864 17.0864C88.2183 15.4865 89.9914 14.9916 91.814 15.3875L129.502 23.6261C131.003 23.956 132.108 25.0116 132.595 26.3063C132.908 27.131 132.966 28.0547 132.71 28.9536H132.702Z" fill="#E2E2E2"/>
<path d="M132.702 28.9536C132.636 29.2093 132.537 29.4567 132.413 29.6959L129.774 35.0068L129.214 36.1449L87.3113 120.411C86.8743 121.294 86.1733 121.97 85.3403 122.374C83.8147 121.995 85.0352 119.76 85.0352 119.76C85.0352 119.76 116.538 54.8488 127.243 34.4048C127.383 34.1327 127.523 33.8605 127.663 33.6049C129.296 30.5041 130.376 28.599 130.673 28.3434C131.943 27.2465 132.479 28.0795 132.694 28.9619L132.702 28.9536Z" fill="#757575"/>
<path d="M129.783 35.0066L129.222 36.1447C129.164 35.7818 129.032 35.4684 128.834 35.2128C128.265 34.4871 127.267 34.4623 127.259 34.4623V33.5552C127.259 33.5552 127.44 33.5552 127.68 33.5964C128.166 33.6789 128.983 33.9263 129.552 34.6438C129.642 34.7592 129.717 34.8747 129.791 34.9984L129.783 35.0066Z" fill="#CBCBCB"/>
<path d="M130.533 27.1312C130.492 27.4776 130.393 27.8074 130.244 28.1208L125.371 38.0335L85.6701 118.803C85.1671 119.826 84.1032 120.486 82.9652 120.486C82.6353 120.486 82.2972 120.428 81.9838 120.321L43.8916 107.159C43.0586 106.87 42.3989 106.243 42.0773 105.427C42.0525 105.361 42.0278 105.287 42.003 105.212C41.7639 104.454 41.8381 103.629 42.201 102.92L54.1342 80.0183L86.9072 17.1113C87.4267 16.1134 88.4493 15.4949 89.5792 15.4949C89.7441 15.4949 89.9008 15.5114 90.0657 15.5361C90.1152 15.5444 90.1729 15.5526 90.2307 15.5691L120.183 22.1089L128.183 23.8572C129.7 24.1871 130.706 25.5973 130.533 27.1394V27.1312Z" fill="white"/>
<path d="M107.483 64.0273L104.96 63.351L72.2114 54.6011C71.1558 54.3207 70.7269 53.2569 71.2465 52.2178L73.2257 48.3005L82.3467 30.2151C82.8663 29.1843 84.1446 28.574 85.2002 28.8544L87.1629 29.3822L118.32 37.7033L120.464 38.2723C121.519 38.5527 121.948 39.6166 121.429 40.6557L110.328 62.6583C109.809 63.6891 108.531 64.2994 107.475 64.019L107.483 64.0273Z" fill="#F6F0EA"/>
<path d="M75.8318 64.1841L73.9928 63.6893L75.9391 62.7574L75.5514 61.8007L73.6052 62.7326L74.5206 60.9266L73.4403 60.6379L72.5249 62.444L71.8651 60.8194L70.7188 61.3719L71.3785 62.9965L69.5395 62.5017L69.0035 63.5656L70.8425 64.0604L68.8962 64.9923L69.2838 65.9489L71.2301 65.017L70.3147 66.8231L71.395 67.1117L72.3104 65.3057L72.9702 66.9303L74.1165 66.386L73.4568 64.7614L75.2958 65.2562L75.8318 64.1923V64.1841Z" fill="#AFAFAF"/>
<path d="M93.2654 68.8438L91.4264 68.3489L93.3726 67.417L92.985 66.4604L91.0388 67.3923L91.9542 65.5862L90.8738 65.2976L89.9584 67.1037L89.2987 65.479L88.1524 66.0316L88.8121 67.6562L86.9731 67.1614L86.437 68.2252L88.2761 68.7201L86.3298 69.6519L86.7174 70.6086L88.6637 69.6767L87.7483 71.4827L88.8286 71.7714L89.744 69.9653L90.4038 71.59L91.5501 71.0457L90.8903 69.421L92.7294 69.9158L93.2654 68.852V68.8438Z" fill="#AFAFAF"/>
<path d="M84.5484 66.5096L82.7094 66.0148L84.6556 65.0829L84.268 64.1263L82.3218 65.0582L83.2372 63.2521L82.1568 62.9635L81.2414 64.7696L80.5817 63.1449L79.4354 63.6892L80.0951 65.3139L78.256 64.819L77.72 65.8829L79.5591 66.3777L77.6128 67.3096L78.0004 68.2662L79.9467 67.3343L79.0313 69.1404L80.1116 69.429L81.027 67.623L81.6867 69.2476L82.8331 68.7033L82.1733 67.0787L84.0124 67.5735L84.5484 66.5096Z" fill="#AFAFAF"/>
<path d="M101.991 71.1692L100.152 70.6744L102.098 69.7425L101.71 68.7859L99.7641 69.7177L100.68 67.9117L99.5992 67.623L98.6838 69.4291L98.024 67.8045L96.8777 68.3488L97.5375 69.9734L95.6984 69.4786L95.1624 70.5424L97.0014 71.0372L95.0552 71.9691L95.4428 72.9258L97.389 71.9939L96.4736 73.7999L97.554 74.0886L98.4694 72.2825L99.1291 73.9072L100.275 73.3546L99.6157 71.73L101.455 72.2248L101.991 71.1609V71.1692Z" fill="#AFAFAF"/>
<path d="M62.8017 77.8986L62.7604 83.325L58.6782 86.3104C58.6782 86.3104 54.4064 88.3061 52.5838 92.8584C50.7695 97.4106 43.8751 107.109 43.8751 107.109L42.0031 105.204C41.7722 104.445 41.8464 103.621 42.2175 102.895L54.2909 79.5892L62.7934 77.8986H62.8017Z" fill="#AFAFAF"/>
<path d="M98.3783 88.3557L95.3022 94.4501C94.8981 95.2501 93.9168 95.7202 93.1003 95.5057L58.6779 86.3105L56.8306 85.8157C56.0142 85.6013 55.6843 84.7766 56.0884 83.9766L59.1645 77.8822C59.5686 77.0823 60.55 76.6122 61.3664 76.8266L80.4579 81.9232L97.6361 86.5084C98.4525 86.7228 98.7824 87.5475 98.3783 88.3475V88.3557Z" fill="#020204"/>
<path d="M76.2193 88.2484L74.8833 85.494L75.5183 85.1559L76.5904 87.3825L81.4725 84.6281L81.7447 85.1394L76.2193 88.2484Z" fill="white"/>
<path d="M80.6146 82.0716C80.6146 82.0716 75.2954 87.2671 67.3619 84.9827C63.3127 83.8199 60.4758 84.9333 58.6779 86.3105L56.8306 85.8157C56.0142 85.6013 55.6843 84.7766 56.0884 83.9766L59.1645 77.8822C59.5686 77.0823 60.55 76.6122 61.3664 76.8266L80.4579 81.9232C80.5651 82.0139 80.6146 82.0634 80.6146 82.0634V82.0716Z" fill="black"/>
<path d="M128.282 23.3706L90.3295 15.0825C90.2718 15.066 90.2058 15.0577 90.1481 15.0495C89.9584 15.0165 89.7687 15 89.5873 15C88.3008 15 87.0885 15.7092 86.4782 16.8885L41.7638 102.697C40.7742 104.594 41.7061 106.928 43.7265 107.629L81.8188 120.791C82.1981 120.923 82.5857 120.98 82.9651 120.98C84.2681 120.98 85.5051 120.246 86.1154 119.018L130.681 28.3434C130.863 27.9641 130.978 27.5765 131.02 27.1889C131.217 25.4653 130.096 23.7664 128.282 23.3706ZM85.2165 118.589C84.7959 119.446 83.9135 119.999 82.9568 119.999C82.6764 119.999 82.4043 119.949 82.1322 119.859L44.0399 106.697C43.3472 106.458 42.7946 105.93 42.5225 105.254C42.2504 104.577 42.2916 103.81 42.6297 103.159L87.0803 17.8946C87.3112 17.4493 87.8225 17.2184 88.309 17.3256L99.6815 19.9481C100.209 20.0718 100.589 20.5254 100.638 21.0697C100.679 21.6057 101.067 22.0511 101.595 22.1748L113.14 24.822C113.47 24.8962 113.817 24.8385 114.097 24.6488L115.194 23.9231C115.474 23.7334 115.821 23.6757 116.15 23.7499L128.694 26.6446C129.387 26.8013 129.75 27.5682 129.436 28.2115L85.2165 118.581V118.589Z" fill="#AFAFAF"/>
<path d="M64.822 116.197C64.822 116.197 64.7396 116.197 64.6983 116.181L58.8431 114.193C58.6451 114.127 58.5462 113.913 58.6122 113.723C58.6781 113.525 58.8925 113.426 59.0822 113.492L64.9375 115.48C65.1354 115.545 65.2344 115.76 65.1684 115.95C65.1189 116.106 64.9705 116.197 64.8138 116.197H64.822Z" fill="#020204"/>
<path d="M99.3764 110.012C99.4341 109.006 99.0877 108.016 98.4033 107.274C97.6033 106.408 96.3086 105.328 94.585 104.907C91.5419 104.165 86.635 102.606 84.9939 104.165C83.361 105.724 82.7672 109.839 84.9939 112.313C87.2205 114.787 89.1585 115.166 89.1585 115.166C89.1585 115.166 96.3663 117.921 98.0734 114.647C99.0135 112.849 99.3022 111.167 99.3681 110.012H99.3764Z" fill="#99644C"/>
<path d="M94.1808 107.472C94.1643 107.843 94.1148 108.222 94.0489 108.602C93.9416 109.187 93.785 109.773 93.62 110.284C93.2572 111.422 92.0944 111.81 90.9068 111.735C88.8204 111.612 86.4453 111.257 86.1071 110.177C85.7773 109.121 85.6041 107.406 85.8432 106.144C85.9917 105.352 86.3051 104.742 86.8494 104.602C87.8555 104.338 91.08 104.602 92.8283 105.336C93.6778 105.69 94.222 106.54 94.1808 107.463V107.472Z" fill="#F6F0EA"/>
<path d="M107.73 94.4501C107.582 93.3203 106.98 92.2976 106.056 91.6297C104.984 90.8462 103.31 89.9226 101.314 89.8318C97.7765 89.6669 91.9954 88.9989 90.5192 91.0854C89.043 93.1718 89.274 97.2045 92.2841 99.4642C95.2942 101.732 96.1601 101.072 97.5208 101.394C99.0382 101.749 105.66 103.497 107.302 99.3817C108.151 97.254 107.912 95.7531 107.739 94.4583L107.73 94.4501Z" fill="#99644C"/>
<path d="M101.628 95.9511C101.471 97.2954 100.275 98.2685 98.9312 98.153C98.2962 98.0953 97.5869 98.0623 96.8777 98.0129C95.1294 97.8892 93.414 97.6665 92.9852 96.8665C92.4491 95.8769 91.9626 94.2523 91.8801 92.8916C91.8141 91.7865 92.0203 90.8463 92.68 90.5247C93.7439 90.0134 97.5045 90.0464 99.5992 90.4835C100.622 90.6979 101.488 91.6875 101.644 92.7184C101.669 92.8751 101.686 93.0318 101.702 93.1967C101.785 94.1286 101.735 95.11 101.636 95.9594L101.628 95.9511Z" fill="#F6F0EA"/>
<path d="M4.61182 117.278L25.1547 88.1579C26.2928 86.5415 27.5876 85.0323 29.0225 83.6633C34.0119 78.8636 46.0688 67.4335 48.5428 66.4604C50.9262 65.5202 63.6181 65.4295 69.1022 65.7182C70.9 65.8171 72.5494 66.7078 73.6215 68.151L83.8394 81.9645C83.8394 81.9645 81.1839 87.3662 70.5207 85.3869C66.0674 84.5622 62.6449 82.2943 62.6449 82.2943L54.2249 87.9517L46.3409 103.918C46.3409 103.918 51.3138 114.094 46.3409 123.223C41.3681 132.353 6.37664 138.975 4.62006 117.278H4.61182Z" fill="#99644C"/>
<path d="M84.367 81.6759C84.2845 81.7831 84.0619 81.882 83.765 81.9563C82.9238 82.1707 81.4394 82.2284 80.4085 81.9233C79.2952 81.5934 75.7078 78.6245 73.4894 75.6392C73.0853 75.0949 72.9616 74.4104 73.3904 73.8908C73.6543 73.5692 73.9265 73.2971 74.1986 73.0744C75.3367 72.126 76.417 71.9446 76.417 71.9446C76.417 71.9446 84.6969 81.2635 84.367 81.6759Z" fill="#F6F0EA"/>
<path d="M55.9981 79.9438C55.9981 79.9438 58.802 82.088 62.6368 82.2942L54.2168 87.9515C54.2168 87.9515 56.9053 83.4075 55.9981 79.9438Z" fill="#5C3C2E"/>
<path d="M101.694 93.1883C100.877 92.4625 99.4754 92.3141 96.7952 91.8193C93.2243 91.1513 91.8718 92.8831 91.8718 92.8831C91.8058 91.7781 92.012 90.8379 92.6717 90.5163C93.7356 90.005 97.4962 90.038 99.5909 90.475C100.613 90.6895 101.479 91.6791 101.636 92.71C101.661 92.8666 101.677 93.0233 101.694 93.1883Z" fill="white"/>
<path d="M94.1808 107.472C94.1643 107.843 94.1149 108.222 94.0489 108.602C93.8097 107.595 93.1747 106.103 91.4594 105.839C89.5214 105.542 87.3854 105.22 85.8433 106.152C85.9917 105.361 86.3051 104.75 86.8494 104.61C87.8555 104.346 91.08 104.61 92.8284 105.344C93.6778 105.699 94.2221 106.548 94.1808 107.472Z" fill="white"/>
<path d="M101.628 95.9508C101.471 97.295 100.275 98.2682 98.9312 98.1527C98.2961 98.095 97.5869 98.062 96.8777 98.0125C97.0674 98.0125 100.366 98.1197 101.628 95.9508Z" fill="#D2BBB0"/>
<path d="M93.6201 110.284C93.2572 111.422 92.0944 111.81 90.9069 111.735C88.8204 111.612 86.4453 111.257 86.1072 110.177C87.27 111.711 90.2224 111.282 91.4594 111.339C92.6882 111.397 93.6201 110.276 93.6201 110.276V110.284Z" fill="#D2BBB0"/>
<path d="M83.765 81.9643C82.9238 82.1787 81.4394 82.2364 80.4085 81.9313C79.2952 81.6014 75.7078 78.6325 73.4894 75.6472C73.0853 75.1029 72.9616 74.4184 73.3904 73.8988C73.6543 73.5772 73.9265 73.3051 74.1986 73.0824C74.1327 73.7751 74.3141 75.0616 75.6913 77.0491C77.918 80.2572 81.093 81.6591 83.765 81.9643Z" fill="#D2BBB0"/>
<path d="M98.2776 32.4385C98.2776 32.4385 122.443 38.6107 109.347 64.5223L121.319 40.8341C121.896 39.6927 121.268 38.3106 120.029 37.9942L98.2776 32.4385Z" fill="#996F00" fill-opacity="0.35"/>
<path d="M107.782 44.3938C107.46 42.5465 106.454 40.8724 104.895 39.5776C103.337 38.2829 101.292 37.4252 99.0237 37.1201C96.7558 36.8149 94.3642 37.0706 92.1541 37.854C89.9439 38.6375 88.0059 39.924 86.5957 41.5321C85.1855 43.1485 84.3608 45.0206 84.2206 46.9173C84.0886 48.8141 84.6494 50.6449 85.837 52.1871C87.0245 53.7292 88.7811 54.9085 90.8923 55.5683C93.7209 56.4589 96.9785 56.3682 99.9473 55.3126C102.916 54.257 105.349 52.3273 106.718 49.9439C107.741 48.1626 108.112 46.2328 107.782 44.3855V44.3938ZM94.859 39.792C96.5496 39.4787 98.265 39.5694 99.7989 40.0477C100.104 40.1467 100.401 40.2621 100.69 40.3858C100.393 40.7652 100.063 41.128 99.6752 41.4497C99.0732 41.9527 98.3722 42.3651 97.597 42.6537C96.8548 42.9341 96.0631 43.0908 95.2631 43.1238C94.4549 43.1485 93.6632 43.0331 92.9375 42.8022C92.1788 42.563 91.5025 42.2001 90.9418 41.7301C90.8675 41.6641 90.7933 41.5899 90.7191 41.5239C91.9149 40.6745 93.3333 40.0642 94.8508 39.7756L94.859 39.792ZM90.8593 52.5169C89.4986 51.7912 88.4759 50.7356 87.9152 49.4739C87.3544 48.2203 87.2801 46.8184 87.709 45.4576C87.8822 44.9051 88.1543 44.3773 88.4759 43.866C89.2594 44.4103 90.1418 44.8474 91.1232 45.1443C92.2283 45.5071 93.4323 45.6638 94.6611 45.6226C95.8569 45.5978 97.0527 45.3587 98.166 44.9216L93.3251 53.3581C92.4427 53.1849 91.6098 52.9045 90.8593 52.5087V52.5169ZM103.807 49.0285C103.065 50.3233 101.885 51.4449 100.417 52.2448C99.2793 52.8716 98.0093 53.2757 96.7063 53.4488L103.18 42.1671C103.592 42.629 103.939 43.132 104.178 43.6846C104.928 45.3669 104.796 47.2884 103.799 49.0203L103.807 49.0285Z" fill="#996F00"/>
</g>
<defs>
<clipPath id="clip0_7_13766">
<rect width="120" height="120" fill="white" transform="translate(15 15)"/>
</clipPath>
</defs>
</svg>
