<?xml version="1.0" encoding="iso-8859-1"?>
<!-- Uploaded to: SVG Repo, www.svgrepo.com, Generator: SVG Repo Mixer Tools -->
<svg fill="#f7f7f7" height="24px" width="24px" version="1.1" id="Layer_1" xmlns="http://www.w3.org/2000/svg" xmlns:xlink="http://www.w3.org/1999/xlink" 
	 viewBox="0 0 512 512" xml:space="preserve">
<g>
	<g>
		<path d="M256,0C114.842,0,0,114.842,0,256s114.842,256,256,256c0,0,0,0,0.009,0C397.167,511.992,512,397.158,512,256
			S397.158,0,256,0z M234.692,18.065c-33.946,32.572-60.177,66.432-78.737,101.402H60.092
			C99.482,63.113,162.509,24.482,234.692,18.065z M49.212,136.533h98.304c-16.324,35.917-24.61,72.96-24.806,110.933H17.28
			C18.705,207.164,30.157,169.395,49.212,136.533z M17.28,264.533h105.813c2.364,40.789,13.679,78.234,28.681,110.933H49.212
			C30.157,342.605,18.705,304.836,17.28,264.533z M60.092,392.533h100.087c24.397,46.771,54.963,82.15,73.574,101.325
			C161.963,487.202,99.311,448.649,60.092,392.533z M247.467,483.302c-16.427-16.939-44.237-48.768-67.524-90.769h67.524V483.302z
			 M247.467,375.467h-76.416c-15.906-32.529-28.262-70.101-30.831-110.933h107.247V375.467z M247.467,247.467H139.776
			c0.213-37.931,9.19-74.974,26.726-110.933h80.964V247.467z M247.467,119.467h-71.97c17.579-30.891,41.54-60.937,71.97-90.001
			V119.467z M494.72,247.467H390.255c-0.282-37.956-8.73-74.999-25.293-110.933h97.826
			C481.843,169.395,493.295,207.164,494.72,247.467z M451.908,119.467h-95.497c-18.799-34.961-45.346-68.847-79.65-101.444
			C349.175,24.294,412.416,62.967,451.908,119.467z M264.533,29.943c30.507,28.928,54.622,58.812,72.337,89.523h-72.337V29.943z
			 M264.533,136.533h81.434c17.801,35.977,26.923,73.028,27.23,110.933H264.533V136.533z M264.533,264.533H372.83
			c-2.509,40.832-14.967,78.396-31.019,110.933h-77.278V264.533z M264.533,392.533h68.318
			c-23.561,42.129-51.755,74.018-68.318,90.914V392.533z M278.451,493.85c18.825-19.191,49.672-54.554,74.249-101.316h99.217
			C412.723,448.589,350.157,487.134,278.451,493.85z M462.669,375.68c-0.367-0.043-0.691-0.213-1.067-0.213H361.156
			c15.104-32.691,26.453-70.135,28.757-110.933H494.72C493.295,304.922,481.801,342.775,462.669,375.68z"/>
	</g>
</g>
</svg>