<svg xmlns="http://www.w3.org/2000/svg" version="1.1" xmlns:xlink="http://www.w3.org/1999/xlink" xmlns:svgjs="http://svgjs.dev/svgjs" width="2000" height="378" viewBox="0 0 2000 378"><g transform="matrix(1,0,0,1,-1.2121212121212466,-0.8300103397222074)"><svg viewBox="0 0 396 75" data-background-color="#051726" preserveAspectRatio="xMidYMid meet" height="378" width="2000" xmlns="http://www.w3.org/2000/svg" xmlns:xlink="http://www.w3.org/1999/xlink"><g id="tight-bounds" transform="matrix(1,0,0,1,0.2400000000000091,0.1646845912147228)"><svg viewBox="0 0 395.52 74.67063081757053" height="74.67063081757053" width="395.52"><g><svg viewBox="0 0 624.5598013144548 117.91129234285714" height="74.67063081757053" width="395.52"><g transform="matrix(1,0,0,1,229.03980131445488,16.295989028571427)"><svg viewBox="0 0 395.52 85.31931428571428" height="85.31931428571428" width="395.52"><g id="textblocktransform"><svg viewBox="0 0 395.52 85.31931428571428" height="85.31931428571428" width="395.52" id="textblock"><g><svg viewBox="0 0 395.52 85.31931428571428" height="85.31931428571428" width="395.52"><g transform="matrix(1,0,0,1,0,0)"><svg width="395.52" viewBox="-6.9 -34.9 210.54 45.3" height="85.31931428571428" data-palette-color="#090909"><g class="undefined-text-0" data-fill-palette-color="primary" id="text-0"><path d="M0.6 5L0.6 5Q2.4 5 3.15 4.08 3.9 3.15 3.9 0.45L3.9 0.45 3.9-28.65Q1.85-29.4 1.15-30.35L1.15-30.35 1.65-34.5 13.35-34.5 13.85-30.35Q13.05-29.4 11.1-28.65L11.1-28.65 11.05 0Q11.05 5.75 8.83 8.08 6.6 10.4 1.63 10.4-3.35 10.4-6.9 7.8L-6.9 7.8Q-6.9 7.5-6.9 6.73-6.9 5.95-6.58 4.17-6.25 2.4-5.65 1.2L-5.65 1.2-1.15 1.2Q-0.45 2.3-0.15 4.95L-0.15 4.95Q0.1 5 0.6 5ZM27.65-34.75L34.5-34.75 44.45-5.9Q46.55-5.15 47.4-4.15L47.4-4.15 46.9 0 35.2 0 34.7-4.15Q35.3-4.95 37.1-5.65L37.1-5.65 35.75-9.85 25.75-9.85 24.5-5.8Q26.25-5.1 27.1-4.15L27.1-4.15 26.6 0 15.2 0 14.7-4.15Q15.6-5.3 18.05-6.05L18.05-6.05 27.65-34.75ZM31.05-27.75L30.35-27.75Q30.35-24.7 29.1-20.65L29.1-20.65 27.15-14.45 34.3-14.45 32.4-20.55Q31.25-24.05 31.1-26.9L31.1-26.9 31.05-27.75ZM75.9-24.4L75.9-24.4Q75.9-21 73.77-18.7 71.65-16.4 68.45-15.2L68.45-15.2Q70.95-14.15 71.75-12.65L71.75-12.65 75.4-5.7Q77.75-4.9 78.59-3.85L78.59-3.85 78.09 0 69.65 0 63.9-12.25Q63.1-14.1 62.05-14.1L62.05-14.1 58.8-14.1 58.8-6.1Q62.45-5.3 63.35-4.15L63.35-4.15 62.85 0 49.35 0 48.85-4.15Q49.5-5 51.6-5.8L51.6-5.8 51.6-28.65Q49.55-29.4 48.85-30.35L48.85-30.35 49.35-34.5 62.1-34.5Q69.09-34.4 72.5-32.25 75.9-30.1 75.9-24.4ZM61.75-29.05L61.75-29.05 58.8-29.05 58.8-19.55 61.65-19.55Q65.05-19.55 66.72-20.58 68.4-21.6 68.4-24.25 68.4-26.9 66.7-27.98 65-29.05 61.75-29.05ZM97.79 0.25L90.94 0.25 81.44-28.65Q79.29-29.45 78.64-30.35L78.64-30.35 79.14-34.5 90.84-34.5 91.34-30.35Q90.64-29.4 88.79-28.75L88.79-28.75 93.04-13.95Q94.09-10.5 94.34-7.6L94.34-7.6 94.39-6.75 95.09-6.75Q95.14-9.8 96.34-13.85L96.34-13.85 100.79-28.7Q98.89-29.35 98.14-30.35L98.14-30.35 98.64-34.5 110.04-34.5 110.54-30.35Q109.64-29.25 107.19-28.45L107.19-28.45 97.79 0.25ZM112.24-34.5L123.94-34.5 124.44-30.35Q123.64-29.4 121.69-28.65L121.69-28.65 121.69-5.8Q123.69-5 124.44-4.15L124.44-4.15 123.94 0 112.24 0 111.74-4.15Q112.39-5 114.49-5.8L114.49-5.8 114.49-28.65Q112.44-29.4 111.74-30.35L111.74-30.35 112.24-34.5ZM143.04-29.05L143.04-29.05Q141.34-29.5 139.49-29.5 137.64-29.5 136.51-28.58 135.39-27.65 135.39-25.98 135.39-24.3 136.24-23.35 137.09-22.4 139.59-21.7L139.59-21.7 144.04-20.4Q147.64-19.35 149.76-17.13 151.89-14.9 151.89-10.6L151.89-10.6Q151.89-5.5 148.21-2.55 144.54 0.4 139.09 0.4L139.09 0.4Q136.09 0.4 132.91-0.38 129.74-1.15 127.64-2.55L127.64-2.55Q127.64-2.85 127.64-3.7 127.64-4.55 127.99-6.6 128.34-8.65 128.99-9.95L128.99-9.95 133.74-9.95Q134.54-8.4 134.69-5.8L134.69-5.8Q136.44-5.05 138.76-5.05 141.09-5.05 142.59-6.15 144.09-7.25 144.09-9.3L144.09-9.3Q144.09-10.25 143.94-10.88 143.79-11.5 143.01-12.23 142.24-12.95 140.79-13.4L140.79-13.4 135.64-14.9Q127.79-17.15 127.79-24.9L127.79-24.9Q127.79-29.45 131.09-32.18 134.39-34.9 139.71-34.9 145.04-34.9 150.14-32.5L150.14-32.5Q150.14-32.2 150.14-31.35 150.14-30.5 149.79-28.45 149.44-26.4 148.79-25.1L148.79-25.1 144.04-25.1Q143.19-26.3 143.04-29.05Z" fill="#090909" data-fill-palette-color="primary"></path><path d="M165.04-22.1L165.04-22.1Q169.94-22.1 172.72-19.48 175.49-16.85 175.49-11.65L175.49-11.65Q175.49-5.5 171.87-2.55 168.24 0.4 161.74 0.4L161.74 0.4Q159.64 0.4 157.14-0.2 154.64-0.8 153.29-1.6L153.29-1.6 154.89-5.95Q157.74-4.85 161.04-4.85 164.34-4.85 165.99-6.2 167.64-7.55 167.64-10.55L167.64-10.55Q167.64-14.6 165.74-15.9L165.74-15.9Q164.24-16.95 162.14-16.95 160.04-16.95 156.69-16.45L156.69-16.45 154.69-20.15 154.64-20.15 154.64-34.5 173.09-34.5 173.09-28.8 160.89-28.8 160.89-21.8Q162.49-22.1 165.04-22.1ZM190.86 0.4Q184.24 0.4 181.56-3.55 178.89-7.5 178.89-16.95 178.89-26.4 181.91-30.65 184.94-34.9 191.61-34.9 198.29-34.9 200.96-31.15 203.64-27.4 203.64-17.95 203.64-8.5 200.56-4.05 197.49 0.4 190.86 0.4ZM187.29-27.55Q186.39-24.85 186.39-17.6 186.39-10.35 187.39-7.3 188.39-4.25 191.24-4.25L191.24-4.25Q193.64-4.25 194.79-6.2L194.79-6.2Q196.14-8.45 196.14-16.45 196.14-24.45 195.14-27.35 194.14-30.25 191.16-30.25 188.19-30.25 187.29-27.55Z" fill="#0a0909" data-fill-palette-color="secondary"></path></g></svg></g></svg></g></svg></g></svg></g><g><svg viewBox="0 0 208.8979588751406 117.91129234285714" height="117.91129234285714" width="208.8979588751406"><g><svg xmlns="http://www.w3.org/2000/svg" xmlns:xlink="http://www.w3.org/1999/xlink" version="1.1" x="0" y="0" viewBox="0 0 90 50.800000000000004" enable-background="new 0 0 90 50.8" xml:space="preserve" width="208.8979588751406" height="117.91129234285714" class="icon-icon-0" data-fill-palette-color="accent" id="icon-0"><g fill="#e67e22" data-fill-palette-color="accent"><g fill="#e67e22" data-fill-palette-color="accent"><path fill-rule="evenodd" clip-rule="evenodd" d="M80 2.3C80 1 78.9 0 77.6 0H12.3C11 0 10 1 10 2.3v44.3h70V2.3zM44.6 0.8c0.7 0 1.2 0.6 1.2 1.3 0 0.7-0.6 1.3-1.2 1.3-0.7 0-1.2-0.6-1.2-1.3C43.3 1.4 43.9 0.8 44.6 0.8zM75.8 42.5H14.2V4.2h61.6V42.5zM52 47.5c-0.1 0.6-0.5 0.8-1.1 0.8H39.1c-0.6 0-1-0.2-1.1-0.8H0v1.6c0 0.9 6.3 1.7 14 1.7h62c7.7 0 14-0.8 14-1.7v-1.6H52zM60.8 22.2l-11.6-4.9v3.2l8 3.1-8 3.1v3.2l11.6-4.9V22.2zM43.2 32c0.3 0 0.5-0.1 0.7-0.2 0.2-0.1 0.3-0.3 0.4-0.6 0.1-0.2 0.2-0.6 0.3-1l3.1-12.9c0.2-0.6 0.2-1 0.2-1.3 0-0.3-0.1-0.6-0.3-0.7C47.4 15 47.1 15 46.8 15c-0.4 0-0.7 0.1-0.9 0.4-0.1 0.3-0.3 0.7-0.5 1.4l-3.1 12.9c-0.1 0.7-0.2 1.1-0.2 1.3C42.1 31.6 42.4 32 43.2 32zM40.8 26.6l-8-3.1 8-3v-3.2l-11.7 4.9v2.7l11.7 4.9V26.6z" fill="#e67e22" data-fill-palette-color="accent"></path></g></g></svg></g></svg></g></svg></g><defs></defs></svg><rect width="395.52" height="74.67063081757053" fill="none" stroke="none" visibility="hidden"></rect></g></svg></g></svg>